<svg xmlns="http://www.w3.org/2000/svg" viewBox="0 0 56.23 91.06"><defs><style>.cls-1{opacity:0.5;}.cls-2{fill:#426a30;}</style></defs><g id="Ebene_2" data-name="Ebene 2"><g id="OBJECTS"><g class="cls-1"><path class="cls-2" d="M7.81,23.94c-.12,0-.11,0,0,0C8.36,24.1,8.66,24.19,7.81,23.94Z"/><path class="cls-2" d="M53.75,33.49a.13.13,0,0,0,0,.2,2.7,2.7,0,0,0-1.53,3h0a.23.23,0,0,0-.34-.14,2.61,2.61,0,0,0-.54.31,1.67,1.67,0,0,0-.67.56s0,0,0,.05a8,8,0,0,1-.89.85c.09-.47.17-.94.24-1.42a15.93,15.93,0,0,0,1.78-5.15,1.67,1.67,0,0,0,.65.28.11.11,0,0,0,.09-.19,2,2,0,0,1-.69-.82c0-.06,0-.13,0-.19a.24.24,0,0,0-.17-.23,3.53,3.53,0,0,1,.27-2.3c.35-.73,1.27-1.47,2.09-1a2.27,2.27,0,0,1,.91,1.93,3.75,3.75,0,0,1-1.27,2.58c-.09.11,0,.33.15.27,2.11-.83,2.47-4.68.14-5.47-2-.7-3.48,2.47-2.82,4.29,0,.54,0,1.09,0,1.63a.17.17,0,0,0,.06.14,15.68,15.68,0,0,1-1,2.94,27.51,27.51,0,0,0-.18-7.23A.34.34,0,0,0,50,28L50,27.79h0c0-.18-.1-.36-.15-.54a1.68,1.68,0,0,0,.39-1,4.61,4.61,0,0,0-1-3.2,1.41,1.41,0,0,0-2.45.26c-.06.1.06.24.16.17.61-.46,1.23-.67,1.79-.05a3.91,3.91,0,0,1,.83,2.26,2.56,2.56,0,0,1,0,.81.32.32,0,0,0-.49.32V27h-.11c-1.53-.35-2-2.36-1.22-3.56a.11.11,0,0,0-.15-.15c-.74.43-.74,1.56-.63,2.3a2.51,2.51,0,0,0,1.46,1.85,1.31,1.31,0,0,0,.73.17.3.3,0,0,0,.07.11c0,.08,0,.17,0,.26h0l0,.18a.31.31,0,0,0,.15.21c0,.24.09.47.13.71a25.61,25.61,0,0,1,.32,3.6,23.64,23.64,0,0,1-.21,3.77c-.07.15-.14.3-.2.45a9.94,9.94,0,0,0-1.24-3.6l0,0a.33.33,0,0,0,0-.17.74.74,0,0,0,0-.14.33.33,0,0,0-.08-.18.49.49,0,0,0,0-.11.35.35,0,0,0,0-.08c.86-1.74-1.45-4.41-3.23-4.07a.12.12,0,0,0,0,.24c1.3.37,3.08,1.93,2.71,3.46-.09.39-.5.49-.85.52s-.88-.67-1.09-1a6.64,6.64,0,0,1-.89-2.31c0-.11-.2-.09-.19,0a5.8,5.8,0,0,0,1.06,3.28,1.65,1.65,0,0,0,1.9.51s0,.11.07.17a.22.22,0,0,0,.05.08,4.66,4.66,0,0,1,.16.49.29.29,0,0,0,.49.16,11.61,11.61,0,0,1,.94,3.59s0,0,0,0a.18.18,0,0,0,.07.24l.09.44c0,.05,0,.06.07.08l-.06,0a.18.18,0,0,0,0,.34l-.18.87a43.4,43.4,0,0,1-2.37,7.09c.06-.21.12-.42.19-.62a.15.15,0,0,0,.09-.13l0-.23a12.26,12.26,0,0,1,.44-1.2c.05-.1-.13-.18-.17-.08l-.2.48a20.34,20.34,0,0,0,.08-3.31.15.15,0,0,0,.08-.13A3,3,0,0,0,47,40.46a4.7,4.7,0,0,0,.55-.82A3.19,3.19,0,0,0,48,37.43a2.68,2.68,0,0,0-2.7-2,1.71,1.71,0,0,0-1.36.72,2,2,0,0,0,0,1.93c0,.1.2.11.19,0s0-.18,0-.27c.21,1.07.55,3,1.8,3.18a1,1,0,0,0,.57-.09l0,.1a.27.27,0,0,0,.16.18c.14,1.61-.12,3.21,0,4.83-.47,1.23-.86,2.48-1.29,3.73-.45,1-.92,1.93-1.39,2.88l-.19.39C43,54.45,42,55.82,41.08,57.22l-.34.54a19.48,19.48,0,0,0,.31-2c.18-1.87-.51-3.85-.81-5.7a21.91,21.91,0,0,1,.82-3.73.17.17,0,0,0,.12,0l.13,0a.27.27,0,0,0,.21-.33,2.33,2.33,0,0,1-.07-.25l.2.13A1.62,1.62,0,0,0,43.93,45a3.6,3.6,0,0,0,.2-2.94,1.45,1.45,0,0,0-2.28-.63.15.15,0,0,0,.11.27c.67-.07,1.27-.1,1.59.58a2.84,2.84,0,0,1,0,2c-.17.5-.58,1.16-1.21,1.06-1.58-.28-1.21-2.42-.32-3.24.1-.1,0-.24-.16-.16a2.64,2.64,0,0,0-.9,3.09.34.34,0,0,0-.27.39h0c0,.13.08.26.11.38a8.86,8.86,0,0,0-.65,3c-.07-.55-.15-1.1-.21-1.65A.14.14,0,0,0,40,47c-.08-.42-.18-.82-.29-1.22-.07-.75-.13-1.5-.17-2.25a21.15,21.15,0,0,1,.09-3c0,.07.16-.94.27-1.69,0,.11,0,.23,0,.35a.2.2,0,0,0,.38,0,7,7,0,0,0,.14-.76,1.41,1.41,0,0,0,.22.06c1.12.13,2-1.05,2.39-2,.42-1.1,0-2.86-1.35-3.07a.11.11,0,0,0-.12.08c-.27-.2-.68.12-.87.28a4.68,4.68,0,0,0-1.28,1.91,2.24,2.24,0,0,0,.33,2.3v.07a13.69,13.69,0,0,0-.67,5.92c-.29-.72-.62-1.42-1-2.13a3.19,3.19,0,0,0-.4-3.56c-.72-.94-2.13-1.94-3.33-1.23-1.41.85-1,3-.19,4s2.38,2,3.11.47a3.11,3.11,0,0,0,.18.54l0,0c0,.1,0,.17.13.18a2.55,2.55,0,0,0,.67.82c.34.8.65,1.62.94,2.45.06.55.13,1.1.18,1.63q.18,1.47.39,2.91s0,.09,0,.13a.15.15,0,0,0,.07.18c.09.57.2,1.13.3,1.7A14.12,14.12,0,0,1,39.05,50a6.47,6.47,0,0,0-.71-1.15,9.88,9.88,0,0,0-.77-.66,2.42,2.42,0,0,0-1-3.43,2.12,2.12,0,0,0-3.11,1.4,3.46,3.46,0,0,0,1.47,3,1.62,1.62,0,0,0,2.44-.41,2.68,2.68,0,0,0,.23.26c.12.13.29,0,.25-.16a4.8,4.8,0,0,1,1,1.57,6.45,6.45,0,0,0,1.48,2.43l.06.38a11.13,11.13,0,0,1,0,4,5.71,5.71,0,0,0-1.79-2.73,2.59,2.59,0,0,0-.52-.42l0,0c.34-1.85-3.32-4-4-1.58a3.37,3.37,0,0,0,1.08,2.88c.59.63,1.93,1.34,2.6.42a.13.13,0,0,0-.11-.19,2.37,2.37,0,0,1-1.86-.44A3.4,3.4,0,0,1,34.6,53.2,1,1,0,0,1,35.88,52a2.94,2.94,0,0,1,1.64,1.85.26.26,0,0,0-.11.26h0a.33.33,0,0,0,0,.22.36.36,0,0,1,0,.09.17.17,0,0,0,.11.24.24.24,0,0,0,.23,0l.11,0a1.59,1.59,0,0,0,.34.18,7.11,7.11,0,0,1,1.93,3s0,0,0,.06c-.06.36-.13.71-.21,1.07a34.91,34.91,0,0,0-4.3,10.76.2.2,0,0,0,.39.11c1.17-3.11,2.21-6.17,3.58-9.12-.06.36-.12.72-.16,1.09A54.27,54.27,0,0,0,35.9,72.05c-.81-5-1.54-9.93-2.83-14.8a.09.09,0,0,0-.18,0c1.12,5.28,1.9,10.64,2.76,16,0,.12,0,.24-.07.36-.87-4.71-1.7-9.43-2.61-14.13a79.11,79.11,0,0,0-2.5-13.33,41.21,41.21,0,0,1,.41-4.7c.73-1.26,1.66-2.4,2.47-3.6a11,11,0,0,0,1.53-2.8,1,1,0,0,0,.22.18c.16.12.34-.09.26-.25a2.14,2.14,0,0,1-.16-.39,1.5,1.5,0,0,1,0-.3.41.41,0,0,0-.14-.39,2.53,2.53,0,0,1,1.2-2.22c.54-.37,2.43-.65,2.38.42,0,.8-.93,1.59-1.49,2.07A8.84,8.84,0,0,1,35,35.57a.17.17,0,0,0,.08.31c1.26,0,2.46-1,3.25-1.91.64-.69,1.39-1.8.72-2.69a2.08,2.08,0,0,0-1.51-.55,2.74,2.74,0,0,0-2.07.82,3.31,3.31,0,0,0-1,2.2.31.31,0,0,0-.13.29c.22,2.55-1.91,4.56-3.28,6.67.31-2,.7-4,1.13-6h0a11.51,11.51,0,0,1,3.27-5.44c.16.28.61.05.56-.27l-.06-.3v-.16c.29,1.08,1.2,2,2.35,1.46a3.77,3.77,0,0,0,2-2.54c.24-1-.17-2.51-1.44-2.38-.11,0-.19.13-.1.22.59.58,1.08,1,.9,1.87a3.28,3.28,0,0,1-1.25,2,1,1,0,0,1-1.65-.34c-.57-1-.27-3.34,1.22-3.44.1,0,.13-.14,0-.17-1.5-.47-2.19,1.35-2.17,2.67a.34.34,0,0,0-.61.2c0,.11,0,.21,0,.31a.32.32,0,0,0,0,.24.36.36,0,0,1,0,.11,24.54,24.54,0,0,0-2.55,3.62c.39-1.73.77-3.46,1.1-5.19v-.05c.28-1.33,1-2.1,1.53-3.33a3.84,3.84,0,0,0,.34-1.09l0,0a1.2,1.2,0,0,0,1.11.54c1-.14,1.32-1.4,1.47-2.19.18-.94.27-3-.74-3.54a.17.17,0,0,0-.26.14,5.15,5.15,0,0,0,.29,1.07,4.54,4.54,0,0,1,.15,1.47A3.62,3.62,0,0,1,37,22.39c-.63.69-1.23-.86-1.35-1.27-.32-1.07-.17-2.72.82-3.41a.14.14,0,0,0-.14-.25C35,18,34.81,19.69,35,20.93a3.72,3.72,0,0,0,.3,1.07A7.28,7.28,0,0,1,34,25.15,21.74,21.74,0,0,0,33,19.81a.22.22,0,0,0,0-.08l-.07-.2a1.2,1.2,0,0,0,.23-.11,2,2,0,0,0,.7-3.13,4.29,4.29,0,0,0-3.23-1.65c-1.28,0-1.31,1.15-.9,2,.24,1.25,1.11,2.9,2.37,3a1,1,0,0,0,.51.61,26,26,0,0,1,.67,6.65c0,.1,0,.19,0,.29a.36.36,0,0,0,0,.11c-.12.73-.25,1.47-.39,2.2-.57-1.87-.59-3.86-1.49-5.65,0-.05-.06-.07-.09-.1a.16.16,0,0,0,0-.16l-.21-.23a4.51,4.51,0,0,0-.75-3.47c-.79-.88-2.4-1.11-3.07,0s0,2.54.58,3.44,1.89,2.18,3,1.44a.31.31,0,0,0,.5,0c.66,1.51.51,3.31,1.19,4.79-.39,1.62-.7,3.25-1,4.89l-.12-.87c-.08-.68-.19-1.35-.32-2a10.35,10.35,0,0,0-.28-1,.23.23,0,0,0,.08-.31c-.07-.08-.15-.19-.22-.29a3.08,3.08,0,0,1,0-.51.34.34,0,0,0-.12-.27,3.59,3.59,0,0,0-.62-2.63,1.82,1.82,0,0,0-3-.11c-1.25,1.85,1.47,5.08,2.92,3.84a.38.38,0,0,0,.25.16,1.11,1.11,0,0,0,.4.15c.17.64.29,1.29.4,1.94.18,1.07.18,2.26.45,3.32-.24,1.5-.47,3-.73,4.49-.22,1.22-.48,2.43-.69,3.65-1.43-5.12-3.07-10.18-4.39-15.29a.08.08,0,1,0-.16,0,35.66,35.66,0,0,0,.95,4.43q-1.56-4.63-3.32-9.19l.18-1.76a13.39,13.39,0,0,1,.29-2.56.31.31,0,0,0,.18-.16.2.2,0,0,0,0-.08s0,0,0-.05h0s0,0,0,0l.06-.26a.55.55,0,0,0-.13-.44s0-.08,0-.12l.05,0c1.61.64,2.77-.68,2.88-2.18A4.45,4.45,0,0,0,25,12.51c-.84-.59-1.48-.14-1.94.57l0-.14c0-.09-.12-.17-.17-.07a6.34,6.34,0,0,0-.47,1.58,6.81,6.81,0,0,0-.18.66.09.09,0,0,0,.08.11A3.86,3.86,0,0,0,23,18a.46.46,0,0,0-.22.32h0c0,.2,0,.4,0,.6a.52.52,0,0,0,0,.25l0,.14a.29.29,0,0,0,0,.08v0a.35.35,0,0,0,.07.12,6.85,6.85,0,0,1-.11,2.26c0,.46-.08.93-.11,1.4L22.58,23c-.25-.66-.52-1.32-.79-2v0c0,.09.19,0,.16-.07a28.53,28.53,0,0,0-2.52-5.82c0-.49.1-1,.14-1.39.07-.58.14-1.15.22-1.73a.36.36,0,0,0,.2-.33c0-.15,0-.31,0-.46l.21.08c1.48.38,2.53-1.07,2.52-2.37A3.58,3.58,0,0,0,21,5.82c-1-.47-1.65.4-1.95,1.34a.08.08,0,0,0-.07,0,3.83,3.83,0,0,0,0,3.21.35.35,0,0,0-.11.29,4.58,4.58,0,0,0,.09,1,.29.29,0,0,0,.24.21l0,0c-.09.81-.23,1.62-.3,2.42-.5-.89-1-1.76-1.51-2.62a.09.09,0,0,0-.15.08c.13.32.27.63.41.94-.22-.37-.44-.73-.67-1.09a6.27,6.27,0,0,0-.17-1.54c-.21-1.22-.61-2.42-.84-3.64a.36.36,0,0,0,0-.09h0a1.47,1.47,0,0,0,.09-.17c.06,0,.11.08.18.11,1.44.61,2.3-2.49,2.34-3.37A2.79,2.79,0,0,0,16.57,0a2.23,2.23,0,0,0-2.46,2.51.15.15,0,0,0,.3,0c.34-1,.83-2.2,2.1-2a2.21,2.21,0,0,1,1.64,2.32c0,.63-.8,3.41-1.77,2.77a.09.09,0,0,1,0,0,.21.21,0,0,0-.3-.23h0a7.41,7.41,0,0,1-1.19-2.74.14.14,0,0,0-.28.07,10.3,10.3,0,0,0,.72,2.49.32.32,0,0,0-.17.34,1.73,1.73,0,0,0,.17.75.42.42,0,0,0,.17.18,0,0,0,0,0,0,0,.24.24,0,0,0,.08.06,21.32,21.32,0,0,1,1,4.3,34.44,34.44,0,0,0-3-3.82,3.19,3.19,0,0,0,.48-1.49,2.86,2.86,0,0,0-.67-2A3.47,3.47,0,0,0,10,2.38c-1.12.31-1.18,1.31-.84,2.19a.13.13,0,0,0-.06.16c.5,1.21,2.35,3.42,3.9,2.84a1.39,1.39,0,0,0,.38-.25,56,56,0,0,1,3.31,4.85v.06a.11.11,0,0,0,.09.09c.24.4.49.81.72,1.22a10,10,0,0,0-3.77-2,.76.76,0,0,0-.16-.06l-.4-.12c-.57-1.72-4.21-2.8-5-.92,0,.09.07.16.14.12l.3-.15a4.5,4.5,0,0,0,2.6,2.44,1.68,1.68,0,0,0,1.9-.58,1,1,0,0,0,.5-.14,15,15,0,0,1,4.14,2.2.18.18,0,0,0,.21,0q1.3,2.36,2.45,4.83a6.77,6.77,0,0,0-2.51-1l0,0a.2.2,0,0,0-.16-.3,5.61,5.61,0,0,0-.66.11l-.23-.07a2.28,2.28,0,0,0-1-2.45,3.39,3.39,0,0,0-3.3-.29c-1.16.6-1,2.31-.08,3.06a.13.13,0,0,0,.22-.11c0-.17-.08-.35-.13-.53.83.91,2.45,1.63,3.54,1.08a1.06,1.06,0,0,0,1.38-.09,8.26,8.26,0,0,1,3.36,1.71q1.24,2.79,2.33,5.68L23,25.68c-.25-.21-.52-.39-.78-.58s-.49.09-.44.33a4.76,4.76,0,0,0-3.51-2.7c-2-.27-1.82,2.53-1.17,3.67a3,3,0,0,0,3.59,1.14,1.45,1.45,0,0,0,.93-1.3,1,1,0,0,0,0,.1.19.19,0,0,0,.37-.07l.3.16.89.52a.33.33,0,0,0,.39,0q1.08,3,2,6a5.32,5.32,0,0,0-1-.84.19.19,0,0,0-.12,0,.49.49,0,0,0-.12-.13c-.06-.08-.11-.16-.16-.24a.38.38,0,0,0-.12-.1c-.23-1.38-2.38-1.8-3.51-1.64a1.92,1.92,0,0,0-1.29,3,3.94,3.94,0,0,0,3.58,1.66,1.72,1.72,0,0,0,1.65-1.73l.06.07a.28.28,0,0,0,.45-.12,9,9,0,0,1,.84.8c.6,1.91,1.15,3.81,1.69,5.7a22.92,22.92,0,0,0-3.26-2.31c-2-1.32-4-2.55-5.89-4.06-.08-.07-.19,0-.11.1a44.27,44.27,0,0,0,4.75,3.53c.78.52,1.51,1.11,2.25,1.7l-.24-.15c-2.66-1.71-5.18-3.58-7.72-5.45a.4.4,0,0,0-.1-.57c-1.91-1.14-2.56-3.49-3.13-5.58a1.1,1.1,0,0,0,1.23-.14c1-.84.45-2.67-.1-3.62s-2-1.9-2.91-.68c-.77,1.06.1,2.71.49,3.73a.09.09,0,0,0,.18,0l0-.21a3.67,3.67,0,0,0,.83.79,16.53,16.53,0,0,0,.83,2.89c.13.31.28.61.43.9-.57-.58-1.22-1.15-1.72-1.6a.2.2,0,0,0-.09-.19L13,28.26c-.14-.13-.26-.25-.33-.33A23.29,23.29,0,0,0,11,26.16a.14.14,0,0,0-.05-.08l-.38-.35a.16.16,0,0,0-.15-.05,6.11,6.11,0,0,0-.67-.46l-.14-.08a.28.28,0,0,0,.1-.35,16.09,16.09,0,0,1-1.42-5.88l0,0c1.41-1.67,2.19-5.49-.72-6.07-.88-.18-1.33.57-1.43,1.33a2.8,2.8,0,0,0,1.21,2.73h.06v0a7.82,7.82,0,0,0,.32,1.79.37.37,0,0,0,.17.22c-.07,1.07-.38,1.55-1.33.34-.72-.91-1.4-1.85-2.14-2.75a2.45,2.45,0,0,0,.22-.43,3.06,3.06,0,0,0-1-3.56,2.66,2.66,0,0,0-2.92-.35c-1.14.72-.73,2.44,0,3.3.07.08.18,0,.17-.1-.14-.77-.72-2.1.11-2.7a2,2,0,0,1,2.08.17,2.43,2.43,0,0,1,1.19,2.28,3,3,0,0,1-.36,1.24c-.24.39-.71.12-1-.05-.6-.35-1.14-.83-1.71-1.22-.07-.06-.17.06-.1.12.82.76,2.2,2.49,3.12,1.56A53.81,53.81,0,0,0,7.4,21.15c.16.2.43,0,.46-.18L8,20.28a11.58,11.58,0,0,0,.84,3.82c.14.32-.77,0-1-.14-.39-.09-.91-.21-1.3-.27a2.21,2.21,0,0,0-.9-1.82A4.1,4.1,0,0,0,2,21.22a1.66,1.66,0,0,0-.68,2.67.11.11,0,0,0,.19-.08c-.05-.82-.18-1.7.76-2a3.41,3.41,0,0,1,2.54.31,2,2,0,0,1,1.07,1.19.17.17,0,0,0-.18.21.86.86,0,0,0,.17.31,1.17,1.17,0,0,1-.3.47c-.85.91-3,.13-3.69-.62-.06-.06-.18,0-.13.1a3.15,3.15,0,0,0,4,1.11,1.51,1.51,0,0,0,.59-.65,6.38,6.38,0,0,0,1.32.53,12.51,12.51,0,0,1,2.83,1.48c.49.49,1,1,1.44,1.49a.33.33,0,0,0-.41.43l-.39.08a.35.35,0,0,0-.26.22l-.38.11a1.64,1.64,0,0,0-.4-.19c-2.27-1.42-7-.16-4.8,2.7,1.12,1.43,3.53,1,4.87.19A1.69,1.69,0,0,0,11,29h.91c.17,0,.34,0,.52,0a.41.41,0,0,0,.39-.31l.08,0L15,31a11.83,11.83,0,0,0,.93,1c-.59,0-1.18.09-1.79.1a5.39,5.39,0,0,0-2,.29.19.19,0,0,0-.08.07,3.71,3.71,0,0,0-1.65.55,3.19,3.19,0,0,0-1.6,1.45C8.23,35.94,9.8,37,11.05,37a3.55,3.55,0,0,0,3-2,1.35,1.35,0,0,0-.76-1.83,4.87,4.87,0,0,0,.94,0c.09,0,.13-.15,0-.18-.46-.09-.92-.19-1.37-.31a10.81,10.81,0,0,1,3.83.22.1.1,0,0,0,.05.09,2.08,2.08,0,0,0,.78.46c-.05.15.19.32.74.51l2.16,1.62.53.38c-.16,0-.27-.12-.45-.21h0a.27.27,0,0,0-.4.24c-1.72,0-3.71-.29-5,.91a1.54,1.54,0,0,0,.51,2.6,4.1,4.1,0,0,0,3.48-1,1.42,1.42,0,0,0,.28-2.06c.47,0,.93.06,1.38.1a.52.52,0,0,0,.28,0h0l.15,0a.25.25,0,0,0,.14-.31c.91.65,1.83,1.29,2.77,1.89.4.26.8.51,1.18.77a.28.28,0,0,0-.17.36,1.36,1.36,0,0,0,.1.21A6.8,6.8,0,0,0,23.52,41l-.31.14a.27.27,0,0,0,.08.5.27.27,0,0,0,.29.12l.42-.1a.28.28,0,0,0,.15-.44l.32-.33a.13.13,0,0,1,.05.07,0,0,0,0,0,.08,0,.2.2,0,0,0,0-.13,7.08,7.08,0,0,1,1.28-1s0,0,0,0h0a.32.32,0,0,0,.22-.33,7.82,7.82,0,0,1,1.82,1.93c.52.79.22,1.1.58,1.44.09.34.19.68.28,1,.27,1,.52,1.94.76,2.91a12.19,12.19,0,0,0,.24,2.8c0,.11.22.1.21,0,0-.36,0-.71,0-1.06,1.58,6.55,2.8,13.15,4,19.76v0a42.41,42.41,0,0,0-4.86-4.41c1,.78,2.09,1.55,3.16,2.29.1.07.2-.08.13-.16-2.47-2.79-6-4.66-8.84-7-.42-.34-.82-.71-1.21-1.08A12.84,12.84,0,0,1,20.17,52a.32.32,0,0,0,0-.09,1.56,1.56,0,0,0,1-.33A3.3,3.3,0,0,0,22,47.83c-.59-1.57-2.46-2.11-4-1.91-.16,0-.15.26,0,.31,1.22.39,2.45.51,3.22,1.67a2.82,2.82,0,0,1-.11,2.77.9.9,0,0,1-1.09.52l-.11-.27a.38.38,0,0,0-.6-.19,3.05,3.05,0,0,1-.7-1.16,5.56,5.56,0,0,1,.05-2.69.13.13,0,0,0-.24-.11,4.09,4.09,0,0,0-.14,3.73,2.63,2.63,0,0,0,1,1.11,2.06,2.06,0,0,0,.39.73.19.19,0,0,0,.07.06,27.54,27.54,0,0,0,1.14,3.92c-1.7-1.82-3.24-3.8-4.9-5.67a.09.09,0,0,0-.14.11q.91,1.23,1.89,2.4c-.3-.2-.62-.38-.93-.55a.2.2,0,0,0,.13-.34,20.47,20.47,0,0,1-1.82-2.48.22.22,0,0,0,.14-.14,6.67,6.67,0,0,0,.26-1,.2.2,0,0,0,.09-.15,9.24,9.24,0,0,0,.09-1.66,1.64,1.64,0,0,0,.14-.65.28.28,0,0,0,.13-.32,1.82,1.82,0,0,0,1.85-.94,4.09,4.09,0,0,0-.29-3.69c-.55-.94-2-1.45-2.61-.24a.14.14,0,0,0,.15.2c.79-.24,1.33-.43,1.84.39a3.61,3.61,0,0,1,.43,2.55,1.15,1.15,0,0,1-1.64.94l-.06-.18a.39.39,0,0,0-.52-.26c-.67-.82-1.32-2.61-.52-3.07a.1.1,0,0,0-.08-.18c-1.59.23-.31,3.14.22,3.8a.91.91,0,0,0,.17.17c.07.64.13,1.28.19,1.93,0,0,0,.12,0,.26-.13,0-.31-.19-.6-.61-.45-.65-.88-1.3-1.36-1.93a.19.19,0,0,0-.07-.21,1.65,1.65,0,0,0-.77-.54,2.09,2.09,0,0,0,.36-1.11A4,4,0,0,0,10.93,40a1.8,1.8,0,0,0-2.83,1,.17.17,0,0,0,.28.17c.66-.65,1.3-1.14,2.18-.58a3.37,3.37,0,0,1,1.37,2.12,1.72,1.72,0,0,1-.07.9.14.14,0,0,0-.13,0l-.08.05a.21.21,0,0,0-.05.34h0a1,1,0,0,1-1,.29c-1.08-.26-1.71-2.27-1.75-3.22,0-.17-.27-.18-.27,0,0,1.35.49,3.24,1.85,3.82a1.42,1.42,0,0,0,1.62-.38c1.1,1.26,2,2.65,3.06,4,0,.48-.09.85-.29.48a.16.16,0,0,0-.17-.09h0c-.11-.25-.46,0-.36.2s.13.31.2.46c0,.43,0,.32,0,.1,0,.08.06.16.1.23a.28.28,0,0,0,.06.08,3.08,3.08,0,0,0,.4.64s1.2,1.45.93,1.38a20.08,20.08,0,0,1-2.51-1,.36.36,0,0,0-.14,0c0-1.1-1.54-2.22-2.44-2.5-1.28-.4-2.95.15-3.11,1.63-.26,2.47,4.14,4.79,5.37,2.12a.18.18,0,0,0-.28-.23,2.47,2.47,0,0,1-2.51.58,3.11,3.11,0,0,1-1.83-1.87c-.38-1.11.65-1.72,1.65-1.7a3,3,0,0,1,1.95.92,2.25,2.25,0,0,1,.53,2,.13.13,0,0,0,.21.09,1.49,1.49,0,0,0,.24-.28.29.29,0,0,0,.24.22c1,.26,3.61.66,4.44,1.33l0,0a.2.2,0,0,0-.26.28c1,2,3,3.13,4.52,4.67l-.27-.18c-.23-.14-.42.2-.21.36l.07.08a5.75,5.75,0,0,0-1.29.24.3.3,0,0,0-.39-.27,3.24,3.24,0,0,0-1,.37l-.06.06a2.86,2.86,0,0,0-.62-.51l-.06-.08a.22.22,0,0,0-.2-.07,7.41,7.41,0,0,0-4-.79,2,2,0,0,0-1.23,3.43c1.66,2,6.41,1,6-1.43h0a.17.17,0,0,0,.14,0,.39.39,0,0,0,.29.06,2.88,2.88,0,0,0,1-.24,8.32,8.32,0,0,1,1.83-.4l.38.41c.09.13.33,0,.27-.11l0-.08c.46.3.91.63,1.35,1a91.07,91.07,0,0,0,7.64,6.48,12.56,12.56,0,0,1,2.61,3.36c.95,5.28,1.91,10.56,3.06,15.81.08.39.68.24.6-.15-.79-3.6-1.48-7.21-2.15-10.82,0-.1,0-.2.06-.3C36.76,80,37.68,85.94,40.24,91a.13.13,0,0,0,.24-.09A142.86,142.86,0,0,1,36.26,74.2c-.06-.34-.11-.68-.17-1a45.46,45.46,0,0,1,1.38-5c.2-.12.4-.24.59-.37l.11,0c1.16-.9,2.29-1.81,3.41-2.75,1.44-.33,2.85-.85,4.29-1.16l.29.16a1.75,1.75,0,0,0,.36,1,2.72,2.72,0,0,0,2.9,1,2,2,0,0,0,1.49-1.58c.11-.9-.88-1.3-1.62-1.33a3.37,3.37,0,0,0-1.14.14.13.13,0,0,0-.07-.08,1.57,1.57,0,0,0-1.44-.09c-.35-.09-.7-.2-1.06-.28s-.73.5-.31.72l0,0c-1,.29-2,.61-3,.92,1.15-1,2.28-2,3.36-3.09a9.45,9.45,0,0,0,1.22-1.55,7.67,7.67,0,0,0,1.38-.45,2.59,2.59,0,0,1,.87-.17,1.45,1.45,0,0,0,.22.21A1.55,1.55,0,0,0,51,60c.3-.06.21-.45-.05-.49a2.24,2.24,0,0,1-1-.21.13.13,0,0,0,0-.06.32.32,0,0,0,.07-.3.3.3,0,0,0-.27-.23,2.33,2.33,0,0,1,.35-.62,3.3,3.3,0,0,1,2.72-1.35c.92,0,1.86.55,1.4,1.57S52.85,59.61,52,60c-.12,0-.06.24.06.24A3,3,0,0,0,54.9,58.1c.31-1.34-1.11-1.88-2.18-1.94a3.83,3.83,0,0,0-3.35,2.07.84.84,0,0,0-.06.14.4.4,0,0,0-.44.24,3.75,3.75,0,0,0-.6.14,8.55,8.55,0,0,0-1,.38s0,0,0,0c.68-1.23,1.2-2.55,1.8-3.83a.22.22,0,0,0,.22-.2q0-.2,0-.33a.31.31,0,0,0,0-.19,2.54,2.54,0,0,0,0-.48l.11,0a3.15,3.15,0,0,0,1.75-2.43c.14-1-.61-2.21-1.72-2.06a.12.12,0,0,0-.06.2c.58.52,1.15.78,1.1,1.67a2.62,2.62,0,0,1-1,1.77,1.32,1.32,0,0,1-.34.2.39.39,0,0,0-.75,0,1.31,1.31,0,0,1-.54-.39c-.78-.91-.06-3,1.21-3a.1.1,0,0,0,0-.2c-1.5-.12-2.3,1.57-2.08,2.87a1.83,1.83,0,0,0,1.37,1.45,8.39,8.39,0,0,0,.06,1,.34.34,0,0,0,.09.21.87.87,0,0,0-.32.75c-.37.87-.74,1.73-1.18,2.57a7.37,7.37,0,0,1-.45.77l-.06,0a.21.21,0,0,0-.09.19A19.63,19.63,0,0,1,44,62.42c-.83.82-1.72,1.59-2.63,2.33l-.08,0a.16.16,0,0,0-.11.14c-1,.79-2,1.56-3,2.36a.54.54,0,0,0-.36.29h0l-.22.19c1.85-5.29,4.56-10.35,7-15.46a.12.12,0,0,0,.16-.06,21.38,21.38,0,0,1,2.12-3.72,16.9,16.9,0,0,1,3.24-3.83.42.42,0,0,0,.43-.21.41.41,0,0,0,.11.07c.25.55.76.84,1.5.33a.12.12,0,0,0-.09-.21c-.53.15-.82,0-.94-.34a.32.32,0,0,0,0-.28l0-.07a3,3,0,0,1,.57-1.76c.52-.61,1.62-1.14,2.31-.5a2.35,2.35,0,0,1,.35,2.19,5.24,5.24,0,0,1-1.74,2.41.14.14,0,0,0,.13.23A3.67,3.67,0,0,0,55,43.38a2.23,2.23,0,0,0-1.46-2.55c-1.37-.31-2.68,1.05-3,2.25a2.57,2.57,0,0,0-.06.4.54.54,0,0,0-.24.09A.86.86,0,0,0,50,44S50,44,50,44c-.85,1.36-2.1,2.52-3.05,3.83a14.83,14.83,0,0,0-.81,1.25A51,51,0,0,0,49.57,38.8a4,4,0,0,0,1.35-1c.43-.11.77-.5,1.17-.69a.25.25,0,0,0,.13-.23,1.86,1.86,0,0,0,.35.61,1.69,1.69,0,0,0,2.61-.06,3.56,3.56,0,0,0,1-2.95A1.59,1.59,0,0,0,53.75,33.49Zm-7.4,6.81a.49.49,0,0,1-.48.08A2.46,2.46,0,0,1,45,39.15a9,9,0,0,1-.64-1.58.12.12,0,0,0-.2-.06c.06-.74.38-1.42,1.25-1.46a2.1,2.1,0,0,1,2,1.44,2.42,2.42,0,0,1-.27,1.72,5.24,5.24,0,0,1-.29.52.2.2,0,0,0-.38.06c0,.12,0,.24,0,.36A.31.31,0,0,0,46.35,40.3ZM40,36.18a5.52,5.52,0,0,1,.75-1.47c.08-.11.64-1,.8-1a.09.09,0,0,0,.09,0,11.84,11.84,0,0,1,.81,1.15,1.93,1.93,0,0,1,.05,1.32A2.31,2.31,0,0,1,41,37.84a.67.67,0,0,1-.45,0c0-.09,0-.19,0-.28a.22.22,0,0,0-.41-.13v0A1.84,1.84,0,0,1,40,36.18Zm-2.18,4.89a.29.29,0,0,0-.56.14,1.62,1.62,0,0,0,0,.19.05.05,0,0,0,0,0c-.93,1.51-2.34-.09-2.87-1.08s-.46-2.61.75-2.86c.93-.19,1.88.78,2.33,1.47a2.85,2.85,0,0,1,.4,2.22S37.85,41.11,37.84,41.07Zm-.53,6.65a.22.22,0,0,0-.37.19,3,3,0,0,0,.14.43c-.52.52-1,.84-1.77.38a3,3,0,0,1-1.27-2,1.44,1.44,0,0,1,1.83-1.57A2,2,0,0,1,37.31,47.72ZM30,16.35a.13.13,0,0,0-.05-.07c0-.55.08-1,.82-1a4.07,4.07,0,0,1,2.35,1.24,1.26,1.26,0,0,1,0,2,1.48,1.48,0,0,1-.63.33.39.39,0,0,0-.18,0C31.19,19.05,30.21,17.42,30,16.35Zm.53,6.58a.35.35,0,0,0-.38.44,5.42,5.42,0,0,0,.43,1.17,3.35,3.35,0,0,1-2.15-1.28,3.78,3.78,0,0,1-.8-2.66.92.92,0,0,1,.92-.8,1.59,1.59,0,0,1,1.59,1A4.77,4.77,0,0,1,30.55,22.93Zm2.08,6.94a1.59,1.59,0,0,0,.13.22c-.28,1.43-.59,2.85-.9,4.27C32.08,32.86,32.32,31.36,32.63,29.87Zm-3-.84a1.51,1.51,0,0,0-.05.42.41.41,0,0,0,0,.16,1.36,1.36,0,0,1-1.83-.33,2.38,2.38,0,0,1-.58-2.4c.51-1.12,1.83-.69,2.35.13a3.69,3.69,0,0,1,.53,1.75A.38.38,0,0,0,29.68,29ZM22.87,14.27c.44-.84,1.12-1.74,1.89-1.13a3.89,3.89,0,0,1,1.12,2.71c.06,1.07-.36,2.12-1.56,2.19C22.74,18.12,22.69,15.89,22.87,14.27ZM19,8.53a.07.07,0,0,0,.06,0c.26-.63.74-2.7,1.82-2.21A3.07,3.07,0,0,1,22.2,8.56a1.9,1.9,0,0,1-1.37,2.3A1.18,1.18,0,0,1,20,10.8h0a.26.26,0,0,0-.25-.3.38.38,0,0,0-.26-.18A3.59,3.59,0,0,1,19,8.53ZM12.65,7.14c-.69.18-1.55-.62-2-1q-.36-.33-.69-.69s0,0,0,0c-.23-.71-.77-2.05.27-2.35a2.83,2.83,0,0,1,2.53.89,2.3,2.3,0,0,1,.66,1.41C13.48,5.91,13.33,7,12.65,7.14Zm-.4,4.61.17.13,0,.09a.65.65,0,0,0,.09.16l-.08.1a1.35,1.35,0,0,1-1.47,0,5.06,5.06,0,0,1-2.23-1.86,2.87,2.87,0,0,1,1.86-.22,3.15,3.15,0,0,1,1.82,1.06A.33.33,0,0,0,12.25,11.75Zm4.07,5.92-.18-.08a.34.34,0,0,0-.42.52l0,.05a.42.42,0,0,0,0,.15c-.91.38-2.66-.71-3.29-1.19-.15-.56-.19-1.11.4-1.47a2.77,2.77,0,0,1,2.43.1A1.6,1.6,0,0,1,16.32,17.67Zm4.33,7a.13.13,0,0,0-.16.15c.22.81.94,1.59-.1,2.12a2.26,2.26,0,0,1-2.71-.74c-.75-1-.81-3.34.95-2.9a4.47,4.47,0,0,1,2.16,1.43Zm2,9.31A3.47,3.47,0,0,1,20.06,33a1.37,1.37,0,0,1,.67-2.43,2.93,2.93,0,0,1,2.93,1.2h0a.61.61,0,0,0,.31.67C23.92,33.26,23.67,34,22.62,34Zm-8.78-8.41a.09.09,0,0,0-.13-.06l-.31-.3a.19.19,0,0,0,0-.18.69.69,0,0,1,0-.1c0-.14-.09-.29-.12-.39a.18.18,0,0,0-.35,0,1.31,1.31,0,0,0,0,.15h0a11.76,11.76,0,0,1-.15-1.33c0-.48,0-1,.56-1.2s1.07.38,1.35.79a3.17,3.17,0,0,1,.51,2.72c-.25.57-.78.34-1.24,0A.19.19,0,0,1,13.84,25.61Zm-5.93-12c1.36.6,1.14,2.43.53,3.75,0-.29,0-.58-.09-.87s-.68-.3-.71.09l-.07,0a0,0,0,0,0,0,0C7,15.91,6.05,12.79,7.91,13.62ZM9.4,30.94a3.46,3.46,0,0,1-3.77-.2C4.3,29.5,5.79,28.47,7,28.2a3.85,3.85,0,0,1,3.12.6C10.63,29.73,10.56,30.34,9.4,30.94Zm4,3.91a3.06,3.06,0,0,1-2.37,1.49c-1.09.1-2.33-1-1.41-2a4.17,4.17,0,0,1,1.41-.93c.26-.12.7-.18,1-.33C12.92,33.41,13.92,33.86,13.44,34.85Zm5,3.45a4,4,0,0,1-2.47.76.88.88,0,0,1-.88-.7c-.25-1,.72-1.58,1.54-1.8a7.92,7.92,0,0,1,2-.21C19.28,37.13,19.33,37.64,18.4,38.3Zm9,1.69c-.07-.08-.15-.15-.23-.23.21.15.4.3.61.44L28,41A8.09,8.09,0,0,0,27.41,40ZM19.3,55.16C19.07,55,17,53.63,18.24,54a.19.19,0,0,0,.18,0c.6.69,1.21,1.36,1.84,2Zm-2.47,6a3.81,3.81,0,0,1-3.2-.45A1.58,1.58,0,0,1,13,59.22c0-1.08,1.3-1.09,2.08-1a9.35,9.35,0,0,1,3,1A1.66,1.66,0,0,1,16.83,61.12ZM47,64.21a.22.22,0,0,0,.16-.37c0-.06-.11-.1-.17-.16a.24.24,0,0,0,.14-.24,1.36,1.36,0,0,1,.57,0l-.1,0c-.12,0-.12.24,0,.23a8.82,8.82,0,0,1,1.78.07,1.33,1.33,0,0,1,.81.37.52.52,0,0,1,0,.49,1.42,1.42,0,0,1-.45.54,2,2,0,0,1-2,.15,1.83,1.83,0,0,1-1-1.07A1.92,1.92,0,0,0,47,64.21Zm-6.82-3.78c.09-.42.18-.85.28-1.27.44-.85.9-1.7,1.42-2.54l.73-1.14C41.78,57.12,41,58.77,40.17,60.43ZM55,36.64c-.35.52-1,1-1.61.66-1.31-.71-.44-2.85.57-3.44a.13.13,0,0,0,0-.09c.69,0,1.44,0,1.6.84A2.88,2.88,0,0,1,55,36.64Z"/><path class="cls-2" d="M22.85,41.5a.16.16,0,0,0,.13-.29c-1.35-.79-2.74.48-3.07,1.77-.26,1,.26,2.72,1.47,2.87a2.46,2.46,0,0,0,2.25-1.47c.42-.77.61-2.27-.42-2.63a.13.13,0,0,0-.16.15,2.68,2.68,0,0,1,.21,2,2.33,2.33,0,0,1-1.42,1.44c-.9.28-1.3-.77-1.44-1.46A2.07,2.07,0,0,1,22.85,41.5Z"/></g></g></g></svg>