<svg xmlns="http://www.w3.org/2000/svg" viewBox="0 0 84.39 46.53"><defs><style>.cls-1{fill:#426a30;opacity:0.5;}</style></defs><g id="Ebene_2" data-name="Ebene 2"><g id="OBJECTS"><path class="cls-1" d="M50.29,1a.27.27,0,0,0-.09.28.38.38,0,0,0,0,.5A7.15,7.15,0,0,0,52,3.44a.42.42,0,0,0,.13.32c2.46,2.17,7.93,2.77,11.67,1.78h0a18.25,18.25,0,0,0,7.34.37q-3.36,1.63-6.71,3.3c.12-.13,0-.38-.21-.29-3.17,1.74-6.88,1.78-10.53,1.53a.33.33,0,0,0-.08-.2c-2-2.38-6.66-2.74-9.46-3.07-2-.24-7.84-1-8.94,1.55a1.35,1.35,0,0,0,.38,1.71l-.07.09a.35.35,0,0,0,.15.52c1.73.83,9.69,2.17,12.9.78A8.06,8.06,0,0,0,53.26,11a22.39,22.39,0,0,0,9.39-.88q-2.79,1.38-5.59,2.72a.17.17,0,0,0-.25,0c-1.77,1.19-4,1.44-6.11,1.64-.94.09-1.88.14-2.82.18a1.57,1.57,0,0,0-.28,0,2,2,0,0,0,.24-.46.27.27,0,0,0-.16-.35c-1.18-.38-2.7-.1-2.94,1.31a.3.3,0,0,0,.19.31,2.25,2.25,0,0,0,2.33-.39,33.67,33.67,0,0,0,6.05-.46c-1.59.73-3.17,1.45-4.77,2.14a53.24,53.24,0,0,1-8,1.1.29.29,0,0,0-.27-.26c-2-.26-4.1-.44-6.16-.57l-2.58-.4c-4-.6-8.14-.3-12.21-.46-.37,0-.45.55-.07.59l1,.09a5.44,5.44,0,0,0-2.15.92c-2.08,1.56,4,2.63,4.28,2.66A40.71,40.71,0,0,0,38.58,18.6a47.79,47.79,0,0,0,7.81-1l-1.14.49c-4.2,1.7-8.48,3.35-12.7,5.12-2.33.3-4.65.45-7,.69-.68-.06-1.36-.1-2-.12.14,0,.27,0,.41-.07,1.12-.06,2.23-.09,3.35-.11.39,0,.38-.68,0-.69-.61,0-1.21,0-1.81,0a63.2,63.2,0,0,0-6.45.5,44.66,44.66,0,0,0-4.49.75A21.11,21.11,0,0,0,7.7,25.4a.27.27,0,0,0,.14.52c.74,0,1.48-.07,2.21-.13a8.35,8.35,0,0,0-3.48,2.94.33.33,0,0,0,.14.5c2.38,1,4.82,0,7.13-.75,3.41-1.16,7.12-1.73,10.22-3.62h0c.58-.09,1.17-.18,1.75-.29a.32.32,0,0,0,.25-.33c1.77-.18,3.55-.29,5.32-.49-2.79,1.19-5.54,2.44-8.22,3.81,0-.1-.06-.25-.18-.19a13.62,13.62,0,0,0-2.08,1.38,74.3,74.3,0,0,0-6.55,4,.18.18,0,0,0-.34-.06l-.24.47-.34.23a.27.27,0,0,0-.26,0C7.92,35.37,2.09,39,0,44.52a.26.26,0,0,0,.27.35,7.72,7.72,0,0,0,1.2-.23,6.18,6.18,0,0,0-.23,1.71c0,.12.13.18.23.17,6.28-.43,10.1-7.78,12.53-13,1.65-1.08,3.34-2.08,5.05-3A12,12,0,0,0,16.86,34a2,2,0,0,0-.32.23c-.48.44-.73,1.29,0,1.64A1.34,1.34,0,0,0,17,36a.13.13,0,0,0,.22,0s0,0,.06-.07a1.29,1.29,0,0,0,1-1c0-.11-.13-.2-.22-.12l-.35.3a2.13,2.13,0,0,0,.13-.85c0-.35-.22-.47-.44-.49a13.74,13.74,0,0,1,3.12-4.16c3.1-1.66,6.28-3.15,9.52-4.56-3.79,3.83-11,7-11,13.19a.24.24,0,0,0,.05.14,6.89,6.89,0,0,0,0,1.28.26.26,0,0,0,.35.2c2.88-.85,4.61-3.32,6.15-5.75C27.39,31.48,29,26,32,24.64a.17.17,0,0,0,0-.31c2.72-1.15,5.47-2.26,8.23-3.36-.55.39-1.09.79-1.61,1.21a9.32,9.32,0,0,0-3,3.5c-.91.18-1.65,1.63-1,2.38a.94.94,0,0,0,.43.29s0,0,.06,0A1.53,1.53,0,0,0,36.91,27a1.35,1.35,0,0,0-.85-1.3c.8-2.09,3.31-4,5.58-5.32l3.91-1.57c7.35-3,14.44-6.44,21.51-10a19.79,19.79,0,0,0-2,2.33.14.14,0,0,0-.18.06c-.27.38-.57.73-.87,1.08a.2.2,0,0,0-.24,0,7.62,7.62,0,0,1-3,1.79,11.47,11.47,0,0,1-1.51.47s.07-.08.1-.13a.24.24,0,0,0-.1-.36c-.75-.25-2-.17-1.89.9a.8.8,0,0,0,.61.68,1.25,1.25,0,0,0,1.23-.58,10.33,10.33,0,0,0,1.48-.46A12,12,0,0,0,62.26,14,33.5,33.5,0,0,1,53.67,19l-.12-.11a2,2,0,0,0-2.44.48,1.21,1.21,0,0,0-.22,1.21c.24.77,1.09.6,1.7.54.46-.05,1.1-.38,1-.92a.14.14,0,0,0,0-.07.8.8,0,0,0,.3-.71c3.28-1.43,6.73-3,9.27-5.55-.9,1.42-1.76,2.88-2.63,4.26a.15.15,0,0,0-.23.06c-.09.22-.17.45-.25.68s-.38.58-.58.87a26.8,26.8,0,0,1-2.39,2.93h0a33.4,33.4,0,0,1-4.36,2.17.26.26,0,0,0-.21,0c-3,1.21-6.1,2.07-9,3.55a.17.17,0,0,0-.07.1,28.33,28.33,0,0,0-3.69,2,.25.25,0,0,0,0,.42,10,10,0,0,0-.83.89.27.27,0,0,0,.12.4c4.47,2.18,10.84-3.75,13.6-6.81a28.9,28.9,0,0,0,3.34-1.67c-2.85,2.87-6.08,5.4-8.77,8.41h0C43,33.82,36.74,37.31,35.26,42a.29.29,0,0,0,.31.4,10.09,10.09,0,0,0,1.23-.32c-.18.29-.34.59-.49.89a.3.3,0,0,0,.32.4c3.91-.73,9.34-4.83,10.23-9.19.32-.34.63-.67,1-1a.34.34,0,0,0-.21-.58.28.28,0,0,0,.06-.3c3.07-3.25,6.48-6.15,9.61-9.36l0,0s0,0,0-.06l.69-.71c.13-.14.25-.29.38-.44-.07.15-.16.3-.24.45a74.4,74.4,0,0,1-6.93,7.17.12.12,0,0,0,.16.19,43.35,43.35,0,0,0,5.47-5l-.16.29,0,0-.25.47c-2.45,4.37-5,9.56-2.9,13.69a.28.28,0,0,0,.43.11,4.37,4.37,0,0,0,.71-.64c0,.06,0,.12.05.18s.28.15.37,0c3.43-4,3.53-9.82,4.31-15.16.11-.55.22-1.1.32-1.65a.29.29,0,0,0,0-.16c0-.24.11-.47.16-.71l.89-1.17c.09-.13-.1-.32-.21-.2s-.32.34-.48.51c0-.16.06-.33.11-.49.65-.85,1.27-1.71,1.87-2.59a8.39,8.39,0,0,0,.34,4.36.9.9,0,0,0-.19.15,1,1,0,0,0,.1,1.47,1,1,0,0,0,1.56-.46.13.13,0,0,0-.17-.16c-.27.12-.7.46-1,.26a.55.55,0,0,1-.14-.73l.05,0a3.65,3.65,0,0,0,.18.41c.13.25.54.08.41-.18s-.12-.29-.19-.43a1.29,1.29,0,0,1,1,.24c.48.48-.3,1.3-.68,1.54-.16.11,0,.39.18.29.6-.36,1.5-1.31.92-2.06a1.66,1.66,0,0,0-1.61-.48A8.2,8.2,0,0,1,63,15.63c.82-1.2,1.64-2.4,2.51-3.57.42,1.82.83,3.59,1.18,5.36-.09.4-.18.8-.26,1.19a69.15,69.15,0,0,0-1.65,7.79c-.15,1.22.34,4.14,1.36,4.56,0,.11.07.22.11.3a.26.26,0,0,0,.4.1,3,3,0,0,0,1.06-1.49l.06-.1c2.37-4.08,1.12-8.6-.3-12.71,0-.21.09-.42.14-.63a.32.32,0,0,0-.48-.34l-.24-.67a31,31,0,0,0-1.15-3.66,31.4,31.4,0,0,1,3.56-4C74.28,5.26,79.23,2.78,84.25.45A.23.23,0,0,0,84.07,0c-3.68,1.52-7.28,3.18-10.86,4.9h0a13.29,13.29,0,0,1-7.2.21,12.25,12.25,0,0,0,1.25-.4.34.34,0,0,0,.12-.52A11.76,11.76,0,0,0,62.1,1.63a19.78,19.78,0,0,0-5-1.16C54.76,0,52-.21,50.29,1Zm-14,8.77C35.94,9.11,36.71,8.28,38,8a15.89,15.89,0,0,1,5.12-.21,4.73,4.73,0,0,0-1.35.79.48.48,0,0,0-.11.15C39.89,8.67,37.66,8.78,36.28,9.8Zm5.84,1.42a22.45,22.45,0,0,1-4.55-.62,3.89,3.89,0,0,1-.69-.25c.48-.21,1-.51,1.2-.55a12.43,12.43,0,0,1,2.51-.34c.49,0,1-.05,1.48-.05a11.82,11.82,0,0,0,4,2C44.68,11.37,43.29,11.27,42.12,11.22ZM48,10.84a17,17,0,0,1-4.56-1.38c1,.06,1.9.17,2.84.31a17.28,17.28,0,0,1,2.14.6.21.21,0,0,0,.21.17l.65.07h.06a1.55,1.55,0,0,1-.24.28A10.88,10.88,0,0,1,48,10.84Zm2.28-.68c-2.1-1.17-5-1.31-7.29-1.4.1-.18.4-.35,1-.5a4.65,4.65,0,0,1,1.62-.15l1.91.35.14,0c1.38.41,2.75,1,4,1.36a.26.26,0,0,0,.2,0c.45.21.65.38.66.52ZM46.88,14.5a.13.13,0,0,0-.12-.2,1.4,1.4,0,0,0-.46.16.21.21,0,0,0-.11.28l.1.21a2.17,2.17,0,0,1-.88,0c.26-.7,1.08-.78,1.79-.68a1.18,1.18,0,0,1-.39.49C46.74,14.76,46.73,14.69,46.88,14.5Zm-15.36,3c1.68.17,3.35.34,5,.48-1.39,0-2.79,0-4.18,0-.62-.19-1.23-.36-1.86-.5Zm-9.1,2.4c-.39,0-5.13-1.25-3.57-2a7,7,0,0,1,2.28-.44,38.79,38.79,0,0,1,4.7-.16c1.39.14,2.77.3,4.15.56H30c-2.35-.1-4.67-.26-6.93-.43a.2.2,0,0,0-.05.39l.71.08c-1.32,0-2.63,0-3.95-.05-.3,0-.37.46-.06.48,3.7.24,7.41.12,11.11.21,2,.11,4,.15,6,.1A46.19,46.19,0,0,1,22.42,19.91Zm-4.66,6.65C15,27.33,12.31,28.48,9.48,29c-3.6.63.47-2.28,1-2.54a17.8,17.8,0,0,1,2.84-1c1.48-.21,2.95-.47,4.42-.74h.05c1.36-.1,2.71-.19,4.06-.22-.48.08-1,.18-1.45.29L19,24.9a21.25,21.25,0,0,0-9.27,2.71.23.23,0,0,0,.12.42A2.54,2.54,0,0,0,11,28a.19.19,0,0,0-.05-.37,1.33,1.33,0,0,1,1.35-.78,21.51,21.51,0,0,1,5.35-1.19l.52-.07a.28.28,0,0,0,.35.21c-.37.11,2.05-.35,3.39-.64l.56-.07A24.68,24.68,0,0,1,17.76,26.56ZM8.85,37a.1.1,0,0,0,.13.16l.25-.2c-1.48,1.66-2.86,3.44-4.46,5a15,15,0,0,1-2.36,1.5c1.15-2.29,3.47-4.24,5.3-5.77a29.82,29.82,0,0,1,2.72-2C9.9,36.11,9.37,36.55,8.85,37Zm2.85-1.76c-.63.83-1.29,1.63-2,2.43a.15.15,0,0,0-.07-.22A29.16,29.16,0,0,1,11.7,35.24ZM.81,43.93a14.11,14.11,0,0,1,3.91-4.84,21.75,21.75,0,0,1,2.66-2C5,39,2.71,41.27,1.76,43.79,1.14,44.08.7,44.2.81,43.93Zm8.93-4.07a24.81,24.81,0,0,1-3.58,4.08c-.53.5-5.13,3.83-4.27.77l.1-.24a11.76,11.76,0,0,0,4.5-3.27l0,.06-.26.33L4.83,43c-.23.25.19.55.42.31.57-.6,1.11-1.22,1.63-1.85a8.38,8.38,0,0,0,.67-.67c2-2.19,3.86-4.48,5.74-6.76A57.86,57.86,0,0,1,9.74,39.86Zm7.64-5.59c.1.1.06.36.05.48a2.08,2.08,0,0,1-.19.72,1.05,1.05,0,0,1-.31,0c-.42,0-.42-.33-.29-.6a.21.21,0,0,0,.39,0c.06-.19.14-.39.21-.58C17.3,34.26,17.36,34.25,17.38,34.27Zm4.92,3.36a10,10,0,0,1-2.2,1.59c-.33.17-.39-.13-.3-.64A5.19,5.19,0,0,0,22.3,37.63ZM28,28.79l-.4.76a.3.3,0,0,1,0,.08.19.19,0,0,0-.23.08c-1,1.47-1.91,3-2.93,4.46-.75,1-3.64,3.9-4.38,3.43a27.72,27.72,0,0,1,1.1-2.85A24.31,24.31,0,0,1,25,30.62c.63-.58,1.26-1.13,1.9-1.69C25.19,31,23.54,33.09,21.74,35c-.13.15.12.39.26.24C24.05,33.24,26.13,31.07,28,28.79Zm7.77-2a2.93,2.93,0,0,1,.07-.41.6.6,0,0,1,.34.52h0a2.64,2.64,0,0,1-.46.27.14.14,0,0,0,.11.25l.14-.05a.78.78,0,0,1-.41.41c-.23.1-.6.07-.66-.21a1.26,1.26,0,0,1,.44-1,1.25,1.25,0,0,0,0,.19C35.32,27,35.77,27.05,35.8,26.75ZM57.87,15.07a.28.28,0,0,1,0-.11c-.08-.49.49-.52.91-.46a1.8,1.8,0,0,1-.2.19.7.7,0,0,0-.33.09c-.05,0-.1.09-.06.15v0A2.36,2.36,0,0,1,57.87,15.07ZM52.51,19.8l.27-.11a.18.18,0,0,0,.09.08,1,1,0,0,1,.19.36,2.17,2.17,0,0,1-.57.33.11.11,0,0,0,0-.11c-.1-.11-.21-.2-.31-.31L52.1,20A1.62,1.62,0,0,1,52.51,19.8Zm-.24.73L52,20.6a.12.12,0,0,0-.1.06.6.6,0,0,1-.58-.3.72.72,0,0,1,.22-.8,1.76,1.76,0,0,1,1-.44.26.26,0,0,0,0,.2c0-.19.14-.2-.1-.11l-.3.12a1.15,1.15,0,0,0-.53.32C51.26,20.11,51.85,20.46,52.27,20.53ZM42.18,30.05c.2-.13.35-.23.4-.25a29.48,29.48,0,0,1,3.5-1.54c.48-.19,1-.36,1.46-.52A34.25,34.25,0,0,1,42.18,30.05ZM50,27.22c-.72.62-1.46,1.21-2.22,1.78-2.07,1.55-4.7,3.24-7.39,3.11-.8,0-.24-.62.51-1.19C44.11,30.66,47.17,28.64,50,27.22Zm2-1.55c.32-.08-.47.35-1.06.75a.26.26,0,0,0-.32-.19l-.19.05Zm-15,17a4.55,4.55,0,0,0,1-1.08c3.18-1.38,5.64-4,8-6.58A14.92,14.92,0,0,1,37,42.72Zm1.7-2c.27-.37.49-.66.56-.73a30.56,30.56,0,0,1,3.07-2.6c.72-.56,1.46-1.11,2.2-1.65-.73.77-1.46,1.52-2.22,2.26A20.82,20.82,0,0,1,38.73,40.7ZM45.81,34c-3,2.25-6.42,4.33-8.55,7.39a.94.94,0,0,1-.15.06c-2,.84-.94-.21-.38-1,2.13-3.19,6.14-5.6,9.71-7.21C46.23,33.43,46,33.7,45.81,34Zm7.62,1.91a1.33,1.33,0,0,1,0-.2.35.35,0,0,0,.43-.06c.17-.2.33-.41.49-.63a10.22,10.22,0,0,0,.21,2.87C53.46,39.5,53.43,36.22,53.43,35.89ZM58,29a41.5,41.5,0,0,1-1.3,6.05,24.22,24.22,0,0,1-1.15,2.15,15,15,0,0,0,1.14-3.48c.41-1.64.87-3.26,1.34-4.88Zm.66-4.35c-.24,1-.52,1.91-.79,2.85-.59,2.05-1.23,4.08-1.73,6.15a14.92,14.92,0,0,1-1.23,3.57A11.53,11.53,0,0,1,55,34.75c0-.29.08-.58.13-.87a33.16,33.16,0,0,0,3.4-9.34l.27-.58Zm-.88.06a32.59,32.59,0,0,0-3.29,9c-.21.32-.4.65-.63,1a20.57,20.57,0,0,0,.67-3.5l.15-.41A57.14,57.14,0,0,1,58,23.9C57.93,24.18,57.86,24.45,57.78,24.73Zm7.75,5c-.77-1.49-.23-4,.28-6,0,.54-.07,1.07-.07,1.62A27.74,27.74,0,0,0,66,30.29,1.39,1.39,0,0,1,65.53,29.71Zm2.9-6.7a32.07,32.07,0,0,1-.29,3.39h0c0-.73-.06-1.41-.07-2a47.79,47.79,0,0,0-.42-5.37A11.36,11.36,0,0,1,68.43,23Zm-1-.08a32.94,32.94,0,0,1,0,5.44c0,.14,0,.26,0,.38a7.83,7.83,0,0,1-.47,1,12.19,12.19,0,0,1-.4-2.12A27.34,27.34,0,0,1,67,19.77c0-.17,0-.39.08-.63C67.23,20.38,67.39,21.64,67.48,22.93ZM52.83,1.35A22.06,22.06,0,0,1,63.69,3.3c1.71.75,1.07,1.17,0,1.4-.64-.12-1.28-.24-1.93-.33a.31.31,0,0,0-.24-.24,3.47,3.47,0,0,0-1.06-.07.27.27,0,0,0-.22.16l-.63,0a13.53,13.53,0,0,1-4-.79l1.42,0c2.07.07,4.1.35,6.16.31.24,0,.23-.39,0-.41C60.14,3,57.08,2.47,54,2.8l-.82-.33a5.31,5.31,0,0,1-1.54-.85A4.11,4.11,0,0,1,52.83,1.35Z"/></g></g></svg>