<svg xmlns="http://www.w3.org/2000/svg" viewBox="0 0 99.74 190.93"><defs><style>.cls-1{fill:#426a30;opacity:0.5;}</style></defs><g id="Ebene_2" data-name="Ebene 2"><g id="OBJECTS"><path class="cls-1" d="M34.62,3.88a1.33,1.33,0,0,0,.59.46c.58.27,1.15.55,1.71.83a8.08,8.08,0,0,0,.8.35l.34.1h.07s0,0,.09.06c.28.06.52-.19.35-.46a1.06,1.06,0,0,0-.24-.44,6.1,6.1,0,0,0-.62-.52c-.63-.44-2.21-1.72-3-1.13a.54.54,0,0,0-.1.73S34.61,3.87,34.62,3.88Z"/><path class="cls-1" d="M31.12,7.15c.87.32,1.73.08,2.63.51a16.55,16.55,0,0,1,3,2.05,1.27,1.27,0,0,0,.16.73c.17.43.37.85.54,1.29a.3.3,0,0,0,.57-.19,8,8,0,0,0-.34-1.18c0-.11-.07-.22-.1-.32a.38.38,0,0,0,.09-.64,19.8,19.8,0,0,0-3.68-3c-.89-.46-2.46-.75-3,.35C31,6.9,31,7.1,31.12,7.15Z"/><path class="cls-1" d="M30.37,9.27A2.2,2.2,0,0,0,31.59,9a2.14,2.14,0,0,1,1.66.22.41.41,0,0,0,.38-.73c-.84-.47-3.17-1-3.49.41A.31.31,0,0,0,30.37,9.27Z"/><path class="cls-1" d="M28.88,12.83a3.79,3.79,0,0,1,2,.4c.42.29.89-.4.5-.71a3.23,3.23,0,0,0-2.74-.86C28,11.83,28.23,12.85,28.88,12.83Z"/><path class="cls-1" d="M33.17,14.41c-.71.26-1.42.48-2.15.7a4,4,0,0,0-2,.82.38.38,0,0,0,.21.63,4.29,4.29,0,0,0,1.86-.51c.8-.28,1.59-.53,2.37-.85C33.93,15,33.68,14.21,33.17,14.41Z"/><path class="cls-1" d="M33.1,23a20.88,20.88,0,0,0,3.54-4.35c.29-.46-.45-.84-.75-.39a23.18,23.18,0,0,1-2.78,3.54c-1.07,1.12-2.35,1.57-3.54,2.45a.34.34,0,0,0,.2.62C31,24.89,32.23,23.73,33.1,23Z"/><path class="cls-1" d="M34.2,25.3c.85-.34,1.3-1.23,1.8-2,.75-1.08,1.42-2.21,2.14-3.31.26-.39-.38-.71-.64-.33-.64.95-1.25,1.92-1.92,2.85A8.9,8.9,0,0,0,33.85,25,.27.27,0,0,0,34.2,25.3Z"/><path class="cls-1" d="M38.15,24.86a6.88,6.88,0,0,0,.68-2.52c.19-1,.39-1.92.58-2.88a.37.37,0,0,0-.73-.16c-.22,1-.43,1.92-.64,2.88a6.91,6.91,0,0,0-.4,2.57A.27.27,0,0,0,38.15,24.86Z"/><path class="cls-1" d="M40,22.69a2.73,2.73,0,0,0,.44-1.34l.33-1.6a.35.35,0,0,0-.68-.14L39.83,21a3.44,3.44,0,0,0-.19,1.61A.23.23,0,0,0,40,22.69Z"/><path class="cls-1" d="M41.46,28.19c.3.92,1.75,1.59,2.24.46a.29.29,0,0,0-.06-.34,1.43,1.43,0,0,0-.78-.42c-.17,0-.24-.14-.31-.3A3.76,3.76,0,0,1,42.79,25c.17-.49-.67-.79-.85-.3A5.52,5.52,0,0,0,41.46,28.19Z"/><path class="cls-1" d="M46.25,29.61c.49,0,.58-.6.31-.9a4.7,4.7,0,0,1-1.19-2.93.6.6,0,0,0-1.2.07C44.22,27,44.7,29.59,46.25,29.61Z"/><path class="cls-1" d="M48.29,26.35a.32.32,0,0,0-.09-.49c-.34-.24-.81-.26-1.17-.47a1.77,1.77,0,0,1-.81-1.23c-.07-.45-.78-.43-.72,0a3.12,3.12,0,0,0,.86,1.89A1.47,1.47,0,0,0,48.29,26.35Z"/><path class="cls-1" d="M51.45,20.77a3.76,3.76,0,0,1-1.21-1.47c-.21-.48-1-.23-.78.26a4.4,4.4,0,0,0,1.29,1.73c.4.34,1.11,1,1.66.79a.28.28,0,0,0,.17-.34C52.48,21.27,51.81,21,51.45,20.77Z"/><path class="cls-1" d="M53.05,17.55a.19.19,0,0,0-.28-.25,2.35,2.35,0,0,1-1.75.14.36.36,0,0,0-.15.71C51.68,18.33,52.67,18.48,53.05,17.55Z"/><path class="cls-1" d="M51.4,14.49c-.48.19-.38,1,.18.93.89-.12,2.24-.24,2.52-1.29a.59.59,0,0,0-.75-.67,3.51,3.51,0,0,0-.93.55A6.33,6.33,0,0,1,51.4,14.49Z"/><path class="cls-1" d="M50.7,12.28a1.25,1.25,0,0,0,1.74-.12c.49-.45,1.12-1.3.76-2a.37.37,0,0,0-.33-.17c-.44,0-.7.35-.93.68a5.86,5.86,0,0,1-.37.5l-.18.2h0a.14.14,0,0,0,0,0C50.79,11,50.18,11.88,50.7,12.28Z"/><path class="cls-1" d="M46.48,12.08c1.44-2.72,3.9-4.25,5.74-6.6A.18.18,0,0,0,52,5.21a17.74,17.74,0,0,0-6,6.6A.3.3,0,0,0,46.48,12.08Z"/><path class="cls-1" d="M45.65,10.8a23.44,23.44,0,0,1,2.73-4.6c.56-.8,1.6-1.75,1.69-2.76a.18.18,0,0,0-.28-.19,8.32,8.32,0,0,0-2,2.54,23,23,0,0,0-2.71,4.71C45,10.88,45.5,11.18,45.65,10.8Z"/><path class="cls-1" d="M47.56.54s0,0,0,0h0S47.56.53,47.56.54Z"/><path class="cls-1" d="M46.09,5.69c.6-1.14,1.3-2.24,1.88-3.4.36-.71.76-1.5.12-1.92a.39.39,0,0,0-.51.14h.05c-.2.06-.3.24-.42.4a10,10,0,0,0-.59,1.43c-.43,1-.83,2-1.27,3A.42.42,0,0,0,46.09,5.69Z"/><path class="cls-1" d="M44,4.62c.09.39.6.34.78.06a5.05,5.05,0,0,0,.32-2.15A4.72,4.72,0,0,0,45,.22a.49.49,0,0,0-.84,0,4.87,4.87,0,0,0-.22,2.17A10.7,10.7,0,0,0,44,4.62Z"/><path class="cls-1" d="M40.77,3.51a3.71,3.71,0,0,1,.73,2,.5.5,0,0,0,1-.06,4.55,4.55,0,0,0-.72-2.38c-.4-.64-1.21-1.47-2-1.35a.3.3,0,0,0-.23.46C39.78,2.7,40.4,3,40.77,3.51Z"/><path class="cls-1" d="M38.55,2.61a10.54,10.54,0,0,1-.27-1.24,2.36,2.36,0,0,0-.2-1.06.3.3,0,0,0-.41-.08c-.74.58-.23,1.93,0,2.68C37.79,3.51,38.7,3.21,38.55,2.61Z"/><path class="cls-1" d="M34,17.92c-1.13.16-2.26.27-3.38.52-.59.13-1.37.41-1.31,1.16a.37.37,0,0,0,.38.34c.16,0,.32.07.48.06a4.13,4.13,0,0,0,1.06-.4,20.09,20.09,0,0,1,2.92-.9C34.61,18.6,34.47,17.86,34,17.92Z"/><path class="cls-1" d="M32.94,20.73c.43-.18.84-.39,1.29-.53s.23-.86-.25-.75a12.21,12.21,0,0,0-1.18.34c-.4.14-.78.19-1,.58a.32.32,0,0,0,.13.43A1,1,0,0,0,32.94,20.73Z"/><path class="cls-1" d="M49.74,21.27a2.18,2.18,0,0,0,0,1.49c.26.46.94.9,1.39.46a.28.28,0,0,0,.07-.29c-.12-.37-.45-.31-.65-.58s0-.66,0-.89A.46.46,0,0,0,49.74,21.27Z"/><path class="cls-1" d="M42.22,12.08a.33.33,0,0,0,.55-.36l-1.2-1.91c-.33-.53-.64-1.28-1.21-1.59a.25.25,0,0,0-.36.24,4.2,4.2,0,0,0,1,1.75Z"/><path class="cls-1" d="M42.36,11c.12.49.84.24.73-.24a6.58,6.58,0,0,1-.15-1.16c0-.41,0-.71-.41-.92a.3.3,0,0,0-.41.13c-.22.33-.06.62,0,1S42.25,10.55,42.36,11Z"/><path class="cls-1" d="M37.15,12.68a.48.48,0,0,0-.13.63c.19.36.45.4.83.44a10.46,10.46,0,0,1,1.24.14.46.46,0,0,0,.19-.9c-.36-.09-.69-.2-1-.32S37.52,12.38,37.15,12.68Z"/><path class="cls-1" d="M35.42,14.73a2.14,2.14,0,0,0,1.15.5.47.47,0,0,0,.19-.92,1.11,1.11,0,0,1-.62-.37C35.7,13.43,34.9,14.26,35.42,14.73Z"/><path class="cls-1" d="M41.17,14.61A7.21,7.21,0,0,0,42,16.2c.26.35.93.1.72-.35a12.84,12.84,0,0,0-.63-1.7C41.8,13.65,40.94,14,41.17,14.61Z"/><path class="cls-1" d="M39.46,17.74a.24.24,0,0,0-.31.34c.61,1.23,2.12,1.47,3.36,1.35a.42.42,0,0,0,.39-.34.5.5,0,0,0,.87-.2.87.87,0,0,1,.07-.17c.4-.83-1.09-1.15-1.05-.22a.76.76,0,0,1,0,.15.4.4,0,0,0-.32-.11,4.14,4.14,0,0,1-1.53-.11A9.85,9.85,0,0,1,39.46,17.74Z"/><path class="cls-1" d="M38.49,17.36c-.15,0-.44.22-.55.2a.45.45,0,1,0-.07.89c.32,0,.49-.18.78-.25C39.12,18.08,39,17.28,38.49,17.36Z"/><path class="cls-1" d="M43.08,21.45l.33.09c.59.17.81-.86.2-.94l-.34-.05A.46.46,0,0,0,43.08,21.45Z"/><path class="cls-1" d="M39.5,26.05l-.57-.11a.49.49,0,0,0-.3.92.4.4,0,0,0-.16.23s-.06,0-.1.06c-.37.21-.11.67.22.69a.71.71,0,0,0,.7-.58.3.3,0,0,0,0-.23h0A.5.5,0,0,0,39.5,26.05Z"/><path class="cls-1" d="M46.47,20.13a1.79,1.79,0,0,0-.19-2.47.31.31,0,0,0-.5.16c-.14.5.16,1.12-.14,1.54C45.21,20,46.06,20.72,46.47,20.13Z"/><path class="cls-1" d="M45.37,16.53a2.13,2.13,0,0,1-1-.8.55.55,0,0,0-.92.61,2.07,2.07,0,0,0,1.57,1.06C45.55,17.46,45.89,16.74,45.37,16.53Z"/><path class="cls-1" d="M49.1,17.09c.6-.2,1.21-1.05.74-1.65a.36.36,0,0,0-.41-.14,1.47,1.47,0,0,0-.61.6c-.18.24-.3.09-.45-.12-.37-.51-1.19,0-.82.53S48.45,17.31,49.1,17.09Z"/><path class="cls-1" d="M48.39,11.66c-.25-.06-.4.14-.64.08h0s0-.08-.06-.11a.35.35,0,0,0-.47-.1c-.84.49-.25,1.58.16,2.14a.51.51,0,0,0,.86-.55c-.06-.12-.13-.24-.18-.35.39,0,.78-.23.76-.66A.45.45,0,0,0,48.39,11.66Z"/><path class="cls-1" d="M20.91,39.63c.07.85.13,1.7.21,2.54,0,.42.68.53.8.14,0,.27,0,.54,0,.81,0,.64,1,.57,1-.06A8.34,8.34,0,0,0,22.49,40,5.94,5.94,0,0,0,22,39V38.9c0-.95.17-2.14-.32-3A.4.4,0,0,0,21,36a3.38,3.38,0,0,0-.2,2l-.19-.06a.32.32,0,0,0-.36.41A3.71,3.71,0,0,0,20.91,39.63Z"/><path class="cls-1" d="M16.45,40.64a3.91,3.91,0,0,0,1.86.88.43.43,0,0,0,.18-.83,2.81,2.81,0,0,1-.7-.5,8.65,8.65,0,0,1-.89-.82c-.3-.32-1-1-1.37-.37S16,40.31,16.45,40.64Z"/><path class="cls-1" d="M14.71,42.9a7.12,7.12,0,0,1,1.72,1.16c.43.38.95-.23.59-.64-.78-.89-2.46-2.3-3.75-1.82a.32.32,0,0,0-.11.55A4.38,4.38,0,0,0,14.71,42.9Z"/><path class="cls-1" d="M9.71,45.15a12.89,12.89,0,0,0,2-.19,1.63,1.63,0,0,1,1.54,1.21A.35.35,0,0,0,14,46a2.28,2.28,0,0,0-1.57-1.75,3.1,3.1,0,0,0-2.82.48A.28.28,0,0,0,9.71,45.15Z"/><path class="cls-1" d="M11.16,48.84a.31.31,0,0,0,.13-.6,11.42,11.42,0,0,1-1.3-.38c-.38-.14-.79-.5-1.2-.45a.25.25,0,0,0-.23.26C8.72,48.56,10.44,48.71,11.16,48.84Z"/><path class="cls-1" d="M9.88,49.78a.34.34,0,0,0-.14.66l.32.08a.35.35,0,0,0,.15-.69A1.88,1.88,0,0,0,9.88,49.78Z"/><path class="cls-1" d="M9.93,55.47a.25.25,0,0,0,.17.16c.62.1,1.23-.79,1.62-1.15l.83-.76a5.78,5.78,0,0,0,3.49-.4.45.45,0,0,0-.28-.86,4.68,4.68,0,0,1-2,.17l.71-.65c.23-.21-.11-.61-.35-.41s-.79.63-1.18.93a4.78,4.78,0,0,0-1.5-.14c-.22,0-.43.31-.26.52a2.48,2.48,0,0,0,.61.52c-.2.15-.4.3-.59.46C10.79,54.18,9.7,54.81,9.93,55.47Z"/><path class="cls-1" d="M12.36,58.48a.51.51,0,0,0,.88.31,14.67,14.67,0,0,0,1.66-2.64c.27-.51-.48-.86-.79-.4a6.77,6.77,0,0,1-.75.87,7.91,7.91,0,0,0-1.81,1.07c-.42.32-1.42.92-1.33,1.52a.27.27,0,0,0,.19.22c.55.11,1-.58,1.33-.92a8.42,8.42,0,0,1,.73-.61A1.81,1.81,0,0,0,12.36,58.48Z"/><path class="cls-1" d="M13.23,62.21a.37.37,0,0,0,.61.13c.44-.38.51-1.07.78-1.58A8.17,8.17,0,0,1,16,59.07a.34.34,0,0,0-.13-.56,3.64,3.64,0,0,0,.26-.72c.16-.68-.88-.89-1.06-.22a2.06,2.06,0,0,1-.79,1.15.59.59,0,0,0,0,1C13.58,60.48,12.91,61.42,13.23,62.21Z"/><path class="cls-1" d="M19.19,57.73s0,0,0,0a.58.58,0,0,0-1.13-.24.9.9,0,0,0,.18.88.34.34,0,0,0-.19.24,15.08,15.08,0,0,1-.92,2.62,5.55,5.55,0,0,0-.76,2c0,.33.39.37.58.2a4.89,4.89,0,0,0,1-2.09,21.16,21.16,0,0,0,.77-2.54.31.31,0,0,0,0-.24h.11A.47.47,0,0,0,19.19,57.73Z"/><path class="cls-1" d="M18.93,64.18c.47-.3.48-.86.56-1.38s.23-1.32.36-2a.4.4,0,0,0-.78-.16c-.15.65-.31,1.31-.48,2s-.36,1-.05,1.49A.28.28,0,0,0,18.93,64.18Z"/><path class="cls-1" d="M21.19,65c.41.3,1.2.11,1.11-.53a9.76,9.76,0,0,0-.52-1.36,4.26,4.26,0,0,1-.17-1.59.4.4,0,0,0,0-.19.58.58,0,0,0,.6-.28A2.91,2.91,0,0,0,22.46,60,3.22,3.22,0,0,1,23,58.76c.39-.54-.36-1.25-.78-.71a4.8,4.8,0,0,0-.67,1.29,3.41,3.41,0,0,0-.4,1.52.67.67,0,0,0,.08.17.45.45,0,0,0-.46.34C20.41,62.39,20.17,64.31,21.19,65Z"/><path class="cls-1" d="M24.43,63.86A.69.69,0,0,0,25,63c0-.24-.12-.46-.15-.7a3.89,3.89,0,0,1,0-1.18.63.63,0,0,0-1.24-.26C23.45,61.62,23,63.94,24.43,63.86Z"/><path class="cls-1" d="M28,59.87a5.78,5.78,0,0,1,1.09,2.29.47.47,0,0,0,.88-.3,4.5,4.5,0,0,0-1.5-2.5A.35.35,0,0,0,28,59.87Z"/><path class="cls-1" d="M24.94,53.78a2.9,2.9,0,0,1-.22-1,.25.25,0,0,0-.41-.09,1.32,1.32,0,0,0,0,1.52C24.54,54.63,25.18,54.21,24.94,53.78Z"/><path class="cls-1" d="M22.77,54.35c.18-.56-.7-.73-.89-.19-.09.25-.45.18-.62.36a.46.46,0,0,0-.1.45.47.47,0,0,0,.46.31A1.25,1.25,0,0,0,22.77,54.35Z"/><path class="cls-1" d="M16.13,54.66a.28.28,0,0,0-.45-.09,2.16,2.16,0,0,0-.46.79.56.56,0,0,0,.59.67,1.09,1.09,0,0,0,.73-.5A.54.54,0,0,0,16.13,54.66Z"/><path class="cls-1" d="M6.58,52.36l.14.09-.08-.08a.67.67,0,0,0,.22.19,1.62,1.62,0,0,0,.69.11,15.48,15.48,0,0,1,2,.09.45.45,0,0,0,.18-.88,8.74,8.74,0,0,0-1.95-.38,1.45,1.45,0,0,0-1,.16l-.15.07A.41.41,0,0,0,6.58,52.36Z"/><path class="cls-1" d="M14.44,49a8.7,8.7,0,0,0,2,0,.47.47,0,0,0-.06-.94,7.07,7.07,0,0,1-2-.13c-.54-.1-1-.33-1.47,0a.38.38,0,0,0-.11.54C13.22,48.92,13.85,48.89,14.44,49Z"/><path class="cls-1" d="M17.82,45a2.62,2.62,0,0,1-.29,0,.53.53,0,0,0-.7.1.62.62,0,0,0,.05.89c.31.33.78.13,1.13,0C18.57,45.81,18.4,44.84,17.82,45Z"/><path class="cls-1" d="M17.52,53.23c-.13.51,0,1,.57,1.05s.9-.65.47-1A.53.53,0,0,0,17.52,53.23Z"/><path class="cls-1" d="M20.75,59.88l-.36-.54a.51.51,0,0,0-.85.55l.35.55A.51.51,0,0,0,20.75,59.88Z"/><path class="cls-1" d="M19.51,46.66a1.11,1.11,0,0,0,1.07.88c.54,0,.77-.46.88-.93a.44.44,0,0,0-.15-.45l.05,0c.45-.29,0-1-.45-.69a2.49,2.49,0,0,1-.74.34.46.46,0,0,0-.34.52h0A.32.32,0,0,0,19.51,46.66Z"/><path class="cls-1" d="M18.45,42.16s0,0-.09-.06c.17.1.09.08,0-.05A.23.23,0,0,0,18,42a1.58,1.58,0,0,0-.23.22.46.46,0,0,0,0,.64,1,1,0,0,0,.51.2.43.43,0,0,0,.18-.85Z"/><path class="cls-1" d="M25.6,38.48a.36.36,0,0,0-.37-.32c-.69,0-1,1.36-1.13,1.84A3.14,3.14,0,0,0,24,42.11c.14.29.63,0,.5-.23s.32-1.38.47-1.76S25.65,39,25.6,38.48Z"/><path class="cls-1" d="M26.51,41.75c-.5.34-.53,1-.71,1.56a12.4,12.4,0,0,0-.58,2.23.43.43,0,0,0,.85.18c.24-.69.53-1.35.81-2s.59-1.22.26-1.81A.45.45,0,0,0,26.51,41.75Z"/><path class="cls-1" d="M32.27,49a.38.38,0,0,0,.08-.38h0a.51.51,0,0,0-.41-.48c-.74-.1-1.09.52-1.19,1.17-.07.49.68.82.86.31a2.88,2.88,0,0,1,.13-.31c.09-.19.22-.13,0-.16a.56.56,0,0,0,.29,0A.39.39,0,0,0,32.27,49Z"/><path class="cls-1" d="M31.2,42.19c.24-.38-.2-.73-.55-.65-.79.18-1.56,1.12-2.13,1.64l-1.09,1c-.11.11-.47.56-.58.56-.5,0-.44.75,0,.76.64,0,1.41-.79,1.86-1.16s.9-.78,1.37-1.17A4.47,4.47,0,0,0,31.2,42.19Z"/><path class="cls-1" d="M31.35,47.18c.55-.39,1.29-.47,1.82-.87a.29.29,0,0,0,0-.49,1.22,1.22,0,0,0-.78-.13,10,10,0,0,0,1.89-2.25.31.31,0,0,0-.37-.44c-1.36.38-2.31,1.84-3.1,2.93-.29.4-.56.82-.82,1.25a5.9,5.9,0,0,0-.84,1.32.42.42,0,0,0,0,.27c-.24.47-.47,1-.69,1.45a.37.37,0,0,0,.66.34c.56-1,1.19-2,1.84-3C31.06,47.44,31.19,47.3,31.35,47.18Z"/><path class="cls-1" d="M33.93,53.73a.3.3,0,0,0-.23-.35,1,1,0,0,0-.68.09.59.59,0,0,0-.2-.09l-.14,0c-.13,0-.16,0-.06,0a.41.41,0,0,0-.81-.06.91.91,0,0,0,.13.54,1.82,1.82,0,0,1-.57,0,.46.46,0,0,0-.19.89,3.38,3.38,0,0,0,1.45,0C33.13,54.59,33.83,54.27,33.93,53.73Z"/><path class="cls-1" d="M21.81,48.43c.26.35.76.4,1.15.56s.7.29,1.06.41a.51.51,0,0,0,.3.58A2.37,2.37,0,0,0,26,50c.63-.19.44-1.26-.22-1.15l-.69.13-.19,0a.38.38,0,0,0-.3-.31,8.73,8.73,0,0,1-1.42-.56c-.36-.15-.83-.44-1.2-.26A.35.35,0,0,0,21.81,48.43Z"/><path class="cls-1" d="M25.81,55c-.16.64,1,.73.89.07,0-.28-.26-.54-.24-.79,0-.46-.77-.52-.82-.06a.94.94,0,0,0,0,.44C25.7,54.73,25.83,54.9,25.81,55Z"/><path class="cls-1" d="M25.78,57.2c.55-.34,0-1.09-.53-.82a.37.37,0,0,1-.05.11c-.21-.44-.95-.17-.9.3C24.4,57.62,25.23,57.55,25.78,57.2Z"/><path class="cls-1" d="M19.44,57.8a.47.47,0,0,0,.25.77c.88.28,1.6-.8,1.76-1.52a.46.46,0,0,0-.89-.19C20.39,57.49,19.79,57.35,19.44,57.8Z"/><path class="cls-1" d="M27.61,55.75s0,0,0,.08a.47.47,0,0,0,.2.8A.47.47,0,0,0,28.3,56a.28.28,0,0,1,0-.09A.36.36,0,0,0,27.61,55.75Z"/><path class="cls-1" d="M31.63,59.74a1,1,0,0,0,.07-.3.6.6,0,0,0-.47-.54,6.26,6.26,0,0,0-1-.11l-.24,0c0-.35-.52-.63-.78-.3-1,1.2,1,1.48,1.75,1.58A.58.58,0,0,0,31.63,59.74Z"/><path class="cls-1" d="M30.05,55.52a.53.53,0,0,0-1-.22,1.65,1.65,0,0,0,.24,1.4,1,1,0,0,0,1.39.25.36.36,0,0,0,.08-.36C30.58,56.08,30,56.13,30.05,55.52Z"/><path class="cls-1" d="M36,48.88c-.07-1.42-1.39-1.57-2.4-.92a7.17,7.17,0,0,0-2.2,2.54c-.17.3.25.55.48.33.47-.46,1-1,1.58-1.52a3.13,3.13,0,0,1,1.11-.72c.42-.14.76.21,1,.48A.24.24,0,0,0,36,48.88Z"/><path class="cls-1" d="M19.53,88.44a106.55,106.55,0,0,1-7.1-9.29c-1.54-2.34-1.8-4.68,1.46-.57,1.33,1.67,2.21,3.64,3.5,5.34.12.16.41,0,.33-.15-1.56-4-4.18-7.76-8.07-9.79-.24-.12-.6.13-.47.41,5.11,11.67,16.35,19.14,20.34,31.45.06.21.35.1.31-.1C28.24,99,23.83,93.65,19.53,88.44Z"/><path class="cls-1" d="M64.85,50c.74,2.37.7,5,1.6,7.29.07.17.37.19.39,0a17.91,17.91,0,0,0-1.45-7.45A.28.28,0,0,0,64.85,50Z"/><path class="cls-1" d="M52.55,126.12a.52.52,0,0,0-.39-.6c-4-1.23-10.86-1.08-14.63,1.91q2.37-6.8,5-13.53A13.64,13.64,0,0,0,58,107a.53.53,0,0,0-.49-.76c-4.39.05-9.67.11-13,3.05,0-.09,0-.18,0-.27,1.71-4.2,3.45-8.39,5.29-12.55a.33.33,0,0,0,.46-.11.42.42,0,0,0,0-.1.27.27,0,0,0,.2-.42c.07-.14.12-.3.19-.45,6.16.94,12.57-6.91,13.9-12a.43.43,0,0,0-.55-.49,27.73,27.73,0,0,0-11,6.52c1.61-3.48,3.25-6.94,5-10.36.65-1.28,1.31-2.54,2-3.81,5.93.92,11.8-5,14.07-9.87a.48.48,0,0,0-.57-.67,22.31,22.31,0,0,0-10.69,5c1.5-2.9,3-5.8,4.46-8.72a.32.32,0,0,0,.28-.08,8,8,0,0,0,2.1-3.81c4.23.64,9.35-2.39,11.58-5.63.24-.35-.15-.71-.47-.73-3.25-.16-7,0-9.49,1.94,1.18-2.56,2.32-5.13,3.38-7.74-.08.25-.16.5-.22.76a.25.25,0,0,0,.47.16c.36-.61.7-1.24,1-1.88,5.33-3,8-9.92,8.82-15.68a.51.51,0,0,0-.52-.6c-6.4.25-10.84,10.4-10,16.26l-.36.28a.32.32,0,0,0,.13.57c-1.29,2.88-2.63,5.72-4,8.55-.17-4.88-2.56-10.25-5.56-12.65a.42.42,0,0,0-.68.22C62.41,46.5,61.51,55.76,67,59.47c-2.1,4.18-4.25,8.33-6.4,12.49l-.24.26a.3.3,0,0,0-.06.31l-.86,1.67h-.09a40.32,40.32,0,0,0,.26-10.14c-.24-3.09-1.1-7-4.48-8a.37.37,0,0,0-.41.2c-2.27,5.36-2.21,16.29,3.25,20,0,.17,0,.34,0,.5a.29.29,0,0,0,.08.21l-.85,1.65q-2.61,5.11-5,10.34c.21-5.84-2-12.15-6.36-15.29a.48.48,0,0,0-.74.13c-3.89,5.71-2.64,18.36,4,22-1.63,3.67-3.19,7.38-4.73,11.1-.72-4.35-3.2-8.75-6.62-10.88.13-1.41.28-2.83.43-4.25a.21.21,0,0,0,.24-.13,29.6,29.6,0,0,1,2.31-4.26c.24,2.09-1.37,3.85-2.49,5.49a.21.21,0,0,0,.25.29c2.28-1,3.55-4.5,2.77-6.78a.37.37,0,0,0-.62-.13A17.66,17.66,0,0,0,38.36,90h0c.53-4.86,1.09-9.72,1.58-14.59a68.7,68.7,0,0,1,4-10.51C47.37,58,51.55,51.47,55.19,44.7c6.43-12,13.21-24.47,14.58-38.2,0-.35-.39-.65-.66-.34A125.35,125.35,0,0,0,47.61,42c-2.38,6.15-5.45,13-6.76,19.82.13-5,0-10.06,0-15.1a.22.22,0,0,0,.11,0A10.46,10.46,0,0,0,43.13,39a.32.32,0,0,0-.56-.19,10,10,0,0,0-1.73,3.41,112.55,112.55,0,0,1,.72-12.6.2.2,0,0,0-.4-.08,43.75,43.75,0,0,0-1,6.61A4,4,0,0,0,37.76,33a.44.44,0,0,0-.61.52A13.74,13.74,0,0,0,38.44,37a1.17,1.17,0,0,0,1,.72.63.63,0,0,0,.46-.3A.23.23,0,0,0,40,37.3a.64.64,0,0,0,0-.07c-.54,8,.47,16.37.14,24.18-.17,3.93-.48,7.84-.84,11.74C38.1,77,37.17,81,36,84.76c-.1.35.48.57.62.22.79-2,1.46-4,2.1-6C38.17,84.51,37.52,90,37,95.58c-.13-.07-.26-.15-.4-.21a.52.52,0,0,0-.62.11c-1.85,2.45-.73,6,.29,8.7-.37,5.61-.53,11.21-.56,16.81l0-.15c-2-10.44-2.78-21.06-4.68-31.52-.17-.93-.31-1.86-.45-2.79a.37.37,0,0,0,.33-.16,15.22,15.22,0,0,0,2.07-7.89c0-.51-.65-.54-.88-.19a10.81,10.81,0,0,0-1.35,3.47h0v0c-.19.85-.33,1.71-.46,2.57-1.08-8.2-1.44-16.46-3.66-24.49-.09-.31-.56-.15-.48.16a125.42,125.42,0,0,1,2.51,16.24A3.69,3.69,0,0,0,25,73.67a.46.46,0,0,0-.4.6c.23,1.13,1.33,4.59,3,4,.25-.09.19-.52-.09-.48-.47.09-1-.92-1.13-1.26a8.91,8.91,0,0,1-.81-1.91c1.83.26,2.45,2.79,3,4.3a.22.22,0,0,0,.33.1c.37,3.46.75,6.92,1.29,10.36.68,4.33,1,8.78,1.36,13.24A116.14,116.14,0,0,0,23.71,85a89.5,89.5,0,0,0-23-28.21c-.22-.18-.67-.12-.7.22C-.72,67,6.8,76.35,12.72,83.6c3.76,4.59,8,8.66,11.09,13.76,3.36,5.51,5.65,11.48,9,17,.26,1.66.56,3.31,1,4.93.59,2.49,1.26,5,1.95,7.43,0,.83,0,1.67.05,2.49-1.94-5.14-8-8.86-13.17-9.37a.52.52,0,0,0-.59.66c1.45,5.32,6.84,11.75,12.77,12-1.17,3.66-2.24,7.35-3.25,11.05a17.94,17.94,0,0,0-3.59-5.75c-2.68-3.14-6.92-6.45-11.24-6.55a.46.46,0,0,0-.41.6c1.83,6.32,5.79,14.51,13.06,15.47l.14.16a.21.21,0,0,0,.35-.1l.41.05s.05,0,.08,0a3.29,3.29,0,0,0-.3.46.31.31,0,0,0,.21.46q-.93,3.65-1.79,7.31a12.29,12.29,0,0,0-9.23-8,.54.54,0,0,0-.64.55c.49,4.83,4.65,7.67,8.81,9.43a.34.34,0,0,0,.05.47c.12.11.24.2.37.3-2.4,10.64-4.32,21.43-5.91,32.32a.21.21,0,0,0,.41.09c2.75-10.18,4.12-20.67,6.17-31a.4.4,0,0,0,.41-.33c0-.18,0-.35,0-.53,2.49.71,5.76-1.17,7.15-3a.5.5,0,0,0-.13-.76c-2.43-1.62-5.42.14-6.81,2.3a.23.23,0,0,0-.05.15l-.15,0c.28-1.34.57-2.67.88-4,.43-1.82.89-3.62,1.36-5.42a.87.87,0,0,0,.23.24,7.49,7.49,0,0,0,5,.46,220.73,220.73,0,0,1-2.55,38.39.21.21,0,0,0,.41.09c3.2-12.61,3.6-25.64,3.32-38.75a9.93,9.93,0,0,0,2.26-.92.64.64,0,0,0,.19-.88,3.69,3.69,0,0,0-2.54-1.64c-.12-3.94-.28-7.89-.43-11.83.22,0,.43.09.66.12,4.33,14.47,9,28.85,8.67,44.2,0,.18.29.21.31,0,1.51-14.94-3.75-29.63-7.87-44.13C44.19,133.75,51,130.9,52.55,126.12Zm4.09-18.84a11.12,11.12,0,0,1-9,5.54,13.53,13.53,0,0,0,2.64-1.23c.29-.17.06-.67-.25-.53a31.87,31.87,0,0,1-6,1.62,11.18,11.18,0,0,0,.41-2.29C47.59,107.44,52.36,107.31,56.64,107.28ZM81,29.88c1.19-1,2.85-2,2.46.13a24.85,24.85,0,0,1-1.77,5.52,17.55,17.55,0,0,1-4.61,6.16,41.09,41.09,0,0,0,2.19-5.58c.12-.39-.5-.51-.62-.13-.84,2.52-2.36,4.81-3.4,7.24l-.07.06a.3.3,0,0,0-.2-.13C75.48,38.28,77.15,33,81,29.88ZM70.5,54.33c2.16-2.51,6-2.77,9.24-2.63A13,13,0,0,1,75.17,55a10,10,0,0,1-1.39.48,6.7,6.7,0,0,0,2.08-2.1c.2-.33-.32-.58-.52-.27a5.19,5.19,0,0,1-2,1.72c-.76.41-1.62.52-2.39.9a.2.2,0,0,0-.11.21l-1,.08c0-.15,0-.3.06-.46C70.13,55.15,70.31,54.74,70.5,54.33Zm-6.65-4A29.09,29.09,0,0,1,63.92,45c0-.32.61-3.15.57-3.18,4,3.28,4.84,9.27,3.9,14.37a.32.32,0,0,0-.12.55l-.09.44-.86,1.71C64.94,56.58,64.16,53.57,63.85,50.34Zm-2,21.31a19.93,19.93,0,0,1,10.89-5.86,17.3,17.3,0,0,1-7.12,6.93,7.17,7.17,0,0,0,2.63-3.06.3.3,0,0,0-.54-.27,6.59,6.59,0,0,1-2.74,2.77c-1.07.64-2.42.91-3.42,1.67a.34.34,0,0,0-.11.18c-.29,0-.57.11-.87.14Zm-4,3.35a.22.22,0,0,0,.06-.14c.17-2.4-.54-5.09-.9-7.47-.06-.35-.58-.33-.56,0a36.61,36.61,0,0,0,.69,6.65A18.52,18.52,0,0,1,54.58,66a28,28,0,0,1,0-6.07c.21-2,1.23-3.52,2.75-1.19C60.4,63.4,58.49,70,58,75.32A4.15,4.15,0,0,1,57.77,75Zm-6,17.2.34-.75A26.85,26.85,0,0,1,63.49,84,19,19,0,0,1,58,91.46a11.51,11.51,0,0,1-4.5,2.36,27.86,27.86,0,0,0,4.08-4.24c.27-.31-.19-.74-.47-.43-.86,1-1.75,1.92-2.7,2.8s-2,1.45-2.95,2.24l-.23,0A16.23,16.23,0,0,0,51.76,92.2ZM49.2,94.32s0,0,0,0a30.06,30.06,0,0,0-1.8-8.57.27.27,0,0,0-.52.17c.69,2.73.62,6,1.9,8.54a.28.28,0,0,0,.12.1.33.33,0,0,0,0,.24c-5.28-4-6.2-13.82-3.75-19.4.75-1.71,2.68,1.55,3.2,2.32a17.32,17.32,0,0,1,2.31,6.58,22.51,22.51,0,0,1-.21,8.31c-.26.57-.52,1.15-.77,1.72ZM39.45,37.08s0,0-.1-.13a3.61,3.61,0,0,1-.58-1.14c-.18-.46-.34-.94-.49-1.42A5,5,0,0,1,39.53,37Zm1.38,7.16,0,0a14.26,14.26,0,0,1,1.68-4.29c0,1.92-1,3.46-1.71,5.17Zm0,25c2.35-8.57,6-16.4,10.12-24.34S60,30,62.21,21.31a.44.44,0,0,0-.75-.39C58.71,24,57.8,27.79,56.33,31.55a.28.28,0,0,0,.5.25,42.6,42.6,0,0,0,2.74-6.13,13.92,13.92,0,0,1,1.49-2.8,30.35,30.35,0,0,1-1.74,5.07C57.2,33.22,53.92,38,51.11,43A109.22,109.22,0,0,0,41.8,63.12l.18-1c1.36-7.51,4.4-14.48,7.14-21.54a115.1,115.1,0,0,1,8.53-17.06c1.91-3.2,4-6.27,6.23-9.28,1.11-1.54,2.27-3,3.42-4.54,1.42-1.84,1.64-2.39,1.24.14C66.41,23.27,59,35.61,52.62,47.43c-3.39,6.31-7.26,12.39-10.51,18.79C41.62,67.19,41.19,68.2,40.78,69.22ZM36.05,98.33c0-1.24.33-1.61.82-1.53-.16,1.61-.29,3.24-.41,4.86A15.62,15.62,0,0,1,36.05,98.33Zm-17.28-9.4c-7-7.47-14.17-16.06-17.23-26-.63-2-2-6.16,1.12-3.54a69.54,69.54,0,0,1,6,5.8A95.55,95.55,0,0,1,20.2,80.76C26,90.17,29.53,100,32.28,110.44q.13,1.17.3,2.34C28.2,104.64,25.22,95.85,18.77,88.93Zm1,59.86c4.12.92,6.37,4.16,7.6,7.89C24.07,154.71,20.5,152.79,19.75,148.79Zm10.79-1.67-.06.07a.28.28,0,0,0-.19-.33c-.21-.05-.4-.12-.6-.18-.72-2.15-2.79-4.06-4.49-5.38-.32-.24-.74.2-.43.47a18.65,18.65,0,0,1,2.56,2.77c.45.57.82,1.2,1.24,1.79-3.56-1.33-6-3.82-8.14-7.17a29.12,29.12,0,0,1-2.44-5.1c-.91-2.35,0-2,2-1.15,5,2.12,10.87,7.86,10.7,13.68C30.63,146.76,30.59,146.94,30.54,147.12ZM35,155.67a7.14,7.14,0,0,1-2.77,1.73,5.49,5.49,0,0,1-2.41.25C30.94,156.21,33.13,154.82,35,155.67Zm3.54-8.86c-.32.11-.65.2-1,.28l0-.82A2.3,2.3,0,0,1,38.49,146.81Zm-.9-49.68a10.26,10.26,0,0,1,1.31,1.12,13.86,13.86,0,0,1,3.05,5,19.63,19.63,0,0,1,1.23,6.41c-.06.14-.11.28-.17.41-.51-1.52-1.25-3-1.75-4.38a.32.32,0,0,0-.6.2c.34,1.28.73,2.55,1.12,3.81.2.65.37,1.32.58,2a.61.61,0,0,0,0,.12,19.29,19.29,0,0,1-5.26-8C37.2,101.52,37.39,99.32,37.59,97.13Zm-.76,10.52c0-.61.07-1.21.1-1.82,1.06,2.47,2.72,5.52,5.06,6.71l-.09.23-.46,0c-.4,0-.72.57-.26.74l.38.13c-.19.48-.39,1-.59,1.44q-2.2,5.53-4.13,11.13l-.06-.25C36.61,119.79,36.55,113.68,36.83,107.65ZM23.22,120.91c5.13.81,10.3,4.65,11.76,9.7a11.49,11.49,0,0,0-1.83-1.42c-1-.7-2.06-1.32-3.08-2-.3-.19-.64.3-.36.51.87.65,1.73,1.31,2.6,2a15.13,15.13,0,0,0,2.73,2,2,2,0,0,1-.08.26C29.68,130.14,25,126.29,23.22,120.91Zm13.1,26.41a12.09,12.09,0,0,1-2.69.07,1.85,1.85,0,0,0,.7-.43.17.17,0,0,0-.18-.27,3.89,3.89,0,0,1-1,.24,2.84,2.84,0,0,1-.71,0,9.87,9.87,0,0,1,3.86-.82C36.3,146.51,36.31,146.91,36.32,147.32Zm-.11-3.45c0,.38,0,.75,0,1.13a8.73,8.73,0,0,0-4.49,1.14,3,3,0,0,0,.06-.42q1.77-6.43,3.84-12.77l.19.06Q36,138.44,36.21,143.87Zm2-12.56a14.34,14.34,0,0,0,2.5-.8,9.32,9.32,0,0,0,3.69-2.59.33.33,0,0,0-.49-.44A10.44,10.44,0,0,1,40,129.8a18.1,18.1,0,0,1-2.11.54l-.51-1.89c3.43-3,10.21-3,14-2.09.26.06-2.55,2.91-2.75,3a15.46,15.46,0,0,1-4.54,2.08,19.94,19.94,0,0,1-5.69.89C38.38,132,38.29,131.67,38.2,131.31Z"/><path class="cls-1" d="M44.75,116.32c-1.34,2.16-3.48,3.74-4.67,6-.09.17.15.31.28.18A30.27,30.27,0,0,0,45,116.44C45.06,116.3,44.84,116.18,44.75,116.32Z"/><path class="cls-1" d="M99.25,63.53A19,19,0,0,0,94,66.44c-.09.06-2.08,1.7-1,1.6a.23.23,0,0,0,.19-.26.58.58,0,0,0,.18-.11l.63-.41c.57-.4,1.18-.77,1.78-1.14a22.4,22.4,0,0,1,2.59-1.45,12.14,12.14,0,0,1-1.22,1.16l-.58.38h0l0,0c-1.51,1-3.07,1.83-4.63,2.71a.37.37,0,0,0-.06.63c-1.3,1-2.59,2-3.88,3a12.55,12.55,0,0,0,.73-2.06,22,22,0,0,0,.89-3.95.18.18,0,0,0-.07-.17c0-.13,0-.26.07-.39a.37.37,0,0,0-.69-.25c-1.37,2.12-1.64,4.78-2.13,7.21a.37.37,0,0,0,.11.33l0,.15C84.82,75,82.92,76.54,81,78.15l0,0a21.64,21.64,0,0,0,.57-3.94,10.47,10.47,0,0,0,.3-4,.36.36,0,0,0-.67-.14,10.28,10.28,0,0,0-1.68,6.24c0,.25-.09.49-.12.75a.43.43,0,0,0,.46.45,4.68,4.68,0,0,0,.43.75l-.06.65c-.68.59-1.35,1.2-2,1.81a3.26,3.26,0,0,0-.75.23.2.2,0,0,0,0,.38h0q-1.83,1.67-3.6,3.37-3.57,3.47-7.1,7c.11-.38.21-.77.3-1.16a.35.35,0,0,0,.22-.21,20.81,20.81,0,0,0,1.63-8,.37.37,0,0,0-.7-.15c-.25.62-.45,1.26-.65,1.9a.34.34,0,0,0-.12.16.49.49,0,0,0,0,.11h0a13.62,13.62,0,0,0-1,4.47c-.21.91-.41,1.82-.63,2.73-.09.35.42.44.53.11.05-.13.09-.27.13-.4,0,.14,0,.28,0,.42a.18.18,0,0,0,.17.22l-1.37,1.33a.42.42,0,0,0-.31.32L63,95.32c-1.48,1.45-2.95,3.24-4.5,4.93l-.5,0a.2.2,0,0,0,0-.07,12,12,0,0,0,.26-4.58c0-.3-.52-.49-.66-.14a13.39,13.39,0,0,0-.56,1.91,7.63,7.63,0,0,0-.26,1.49c0,.44-.09.88-.11,1.33a.21.21,0,0,0,.14.22c0,.12,0,.25,0,.38l0,0a.3.3,0,0,0,.16.5h0a.45.45,0,0,0,.31.16,19.31,19.31,0,0,1-3.73,3.08c-.3.18,0,.6.29.45A14.29,14.29,0,0,0,58,101.42c.59,0,1.19-.12,1.74-.09a7.65,7.65,0,0,0,3.12-.34c.37-.14.39-.74,0-.8a6.32,6.32,0,0,0-2.93.13l-.55,0-.35,0c.31-.38.63-.75.94-1.1,1.6-1.8,3.33-3.51,5.09-5.2a.38.38,0,0,0,.21.1c1.51.16,2.5,1.06,3.88,1.51.26.08.53-.29.35-.5a6.13,6.13,0,0,0-.63-.62,11.66,11.66,0,0,0,3.39.17.42.42,0,0,0,.17-.78,10.92,10.92,0,0,0-4.14-1.43c-.65-.08-1.51.08-1.12.86-.42-.06-.84-.1-1.26-.13,1.92-1.82,3.87-3.61,5.75-5.41.25-.25.52-.48.78-.73a.37.37,0,0,0,.18.14c2.17.68,5.2.83,7.12-.56a.4.4,0,0,0-.14-.73c-1.51-.31-3.67-1-5.32-.53,1.45-1.32,2.92-2.6,4.42-3.86,1.37.17,2.8.19,4.16.35a10.45,10.45,0,0,0,4.31-.31c.3-.09.39-.61.06-.73a19.71,19.71,0,0,0-5.47-1.11,3,3,0,0,0-1.07.13C83,77.86,85.39,76,87.75,74.05a.64.64,0,0,0-.07.28c0,.27.44.3.47,0s1-.4,2.11-.31c-1.06.25-2.12.59-3.13.76-.57.1-.53,1,.05.9q2.63-.41,5.22-1a25.43,25.43,0,0,1-4.8,1.8.22.22,0,0,0,0,.43c2.24.45,4.67-.86,6.39-2.18a.45.45,0,0,0-.08-.78.39.39,0,0,0-.3-.34c-.76-.14-3.83-.72-5.24-.18,1.87-1.52,3.73-3,5.56-4.61A26.5,26.5,0,0,0,99,65.53l0,0h0l.08-.07a.37.37,0,0,0,0-.58c.21-.26.41-.53.6-.82S99.53,63.45,99.25,63.53ZM69.63,93.47c.27.09.53.2.8.31-1-.09-1.89-.28-2.84-.44a.24.24,0,0,0,0-.3A17.13,17.13,0,0,1,69.63,93.47Zm8.76-7.1c-1.67.66-3.54.24-5.3,0L73.5,86a.33.33,0,0,0,.39.09C75.07,85.53,76.92,86,78.39,86.37Zm3.11-6.05a12.65,12.65,0,0,1,1.93.28c.63.11,1.26.25,1.89.41a20.34,20.34,0,0,1-4.1-.27l-.21,0a.27.27,0,0,0,0-.27C80.74,80.17,81.24,80.32,81.5,80.32Z"/><path class="cls-1" d="M73.05,79.16a9.24,9.24,0,0,0-1,4.77c0,.31.48.56.71.25s.22-.34.32-.51a1.67,1.67,0,0,0,.55.69c.25.17.55-.13.32-.34a1.31,1.31,0,0,1-.38-.85.17.17,0,0,0,.11-.12,12.12,12.12,0,0,0,.25-1.66,20.92,20.92,0,0,0,.36-3.07c0-.42-.71-.48-.74-.06,0,.2-.06.43-.11.68A.41.41,0,0,0,73.05,79.16Z"/><path class="cls-1" d="M25.94,113.84l-.37-.27h0a.42.42,0,0,0,.45-.22.2.2,0,0,0,.08.08l.29.39a5.47,5.47,0,0,0,.42.88.24.24,0,0,0,.3.1,72.88,72.88,0,0,1,6.32,9.91c.09.17.37,0,.31-.15a41,41,0,0,0-6.53-11.48c0-.13,0-.27,0-.4a.28.28,0,0,0,0-.27c-.18-1.62-.46-3.26-.71-4.82a.44.44,0,0,0-.88.06,30.3,30.3,0,0,0,0,3.32c-1.35-1.64-2.75-3.25-4.16-4.84a.46.46,0,0,0,.17-.3c0-.09,0-.18,0-.27,0,.08.07.17.12.25.21.35.74,0,.53-.34h0a.17.17,0,0,0,0-.1,10.83,10.83,0,0,0-.64-2.22,21.05,21.05,0,0,0-.29-2.2.32.32,0,0,0-.64,0v.1c-.3-.27-.89-.16-.8.33.21,1.25.43,2.51.66,3.76-2.28-2.57-4.53-5.12-6.53-7.77a14.25,14.25,0,0,0-2.29-3s0,0,0,0c-.58-.94-1.18-1.88-1.83-2.77a.41.41,0,0,0-.73.35c.14.67,1.2,4.68,2.47,4.52a15.45,15.45,0,0,0,2.7,4.23h0l.07.09c.29.31.7,0,.72-.33a3.57,3.57,0,0,0,.55.41.21.21,0,0,0,.3-.25,3.49,3.49,0,0,0-.15-.34c1.3,1.75,2.64,3.45,4,5.13l-.1,0a14.79,14.79,0,0,0-5.32-2.14c-.56-.13-.77.63-.33.91s.71.42,1.07.61a19,19,0,0,0-3.62-.41c-.53,0-.58.82-.07.92,1.76.32,3.53.68,5.31.83l1.7.4a.44.44,0,0,0,.55-.34c.34,0,.68,0,1-.07a.31.31,0,0,0,.22-.14c1.26,1.57,2.52,3.13,3.77,4.71a8.46,8.46,0,0,0-3.82-1.84.34.34,0,0,0-.35.51c1.3,2.33,3.76,3.31,5.81,4.83C25.86,114.36,26.17,114,25.94,113.84Z"/><path class="cls-1" d="M28.82,118.72l-.11,0h0a21.12,21.12,0,0,0-5.57-1.42.39.39,0,0,0-.34.66c1.56,1.61,3.58,2.61,5.67,1.57h.07a.37.37,0,0,0,.36-.12h0A.23.23,0,0,0,29,119,.32.32,0,0,0,28.82,118.72Zm-4.59-.52c.35.06.69.15,1,.24a.39.39,0,0,0,.32.45c.56.12,1.11.26,1.66.36A4,4,0,0,1,24.23,118.2Z"/></g></g></svg>