<svg xmlns="http://www.w3.org/2000/svg" viewBox="0 0 1919.4 487.58"><defs><style>.cls-1{fill:#426a30;}</style></defs><g id="Ebene_2" data-name="Ebene 2"><g id="Ebene_1-2" data-name="Ebene 1"><g id="_" data-name="&amp;"><path class="cls-1" d="M187.72,79.94a105.64,105.64,0,0,1-10,35.36c3.28,12.25,5.88,19.75,12.85,19.75a29.65,29.65,0,0,0,9.58-1.78v10.08c-3.29,3.16-9.71,5.73-16,5.73-10.12,0-17.37-4.15-22.56-12.05-8.76,7.7-19.28,12.05-30.5,12.05-18.18,0-29.94-15-29.94-37.14,0-24.1,12.3-36.74,25.16-46.42-6.84-8.89-10.53-16.79-10.53-29.23,0-15.61,9.3-31.41,25.7-31.41,15.18,0,23,12.05,23,27.85,0,14-6.57,21.93-14.22,29.24,8.88,8.49,17.36,20.93,23.79,40.29a72.62,72.62,0,0,0,4.38-24.49c0-12.45-4.24-14.22-11.08-14.42V54.07h32.82v9.28C193.33,63.55,189.23,66.11,187.72,79.94Zm-31,47c0-.2-.13-.2-.13-.39-8.07-23.9-14-39.11-21.06-49.58-4.79,6.52-8.34,14.81-8.34,26.66,0,18.18,6.7,27.66,17.09,27.66A21.86,21.86,0,0,0,156.68,127ZM141.92,54.46C149.44,48.53,155,42.21,155,32.73c0-9.08-4.1-15.8-11.48-15.8-5.88,0-11.63,5.93-11.63,16.79C131.93,42.61,135.49,48.14,141.92,54.46Z"/></g><g id="S"><path class="cls-1" d="M212.17,181.28c0-29.9,16.23-48.1,34.44-48.1,15.69,0,26.87,12,26.87,29.64,0,13-5.23,22.36-15.15,22.36-12.62,0-13.16-23.4-22-23.4-5.41,0-10.28,7.28-10.28,19.5,0,29.12,20.74,42.12,39.31,42.12,20.38,0,35-18.46,35-45.5,0-33.28-18.58-47.32-39-62.13C242.1,102,222.63,88,222.63,54.41,222.81,18.79,244.44.08,269.33.08c16.23,0,26.33,4.94,33.9,11.44L305.58,4h8.83l8.66,59.27-6.67,2.86c-8.84-31.72-24-49.4-42.38-49.4-11.18,0-21.82,8.06-21.82,22.88,0,16.64,12.08,25.48,26.69,35.1,25.42,16.9,52.29,35.36,52.29,87.87,0,41.34-25.06,78.52-64.92,78.52C234.71,241.08,212.17,216.9,212.17,181.28Z"/></g><g id="L"><path class="cls-1" d="M120.92,159.17l7.25,7-20.09,67.89H.8V220c13.25-1.67,16.36-4.35,16.36-23.41V37.45C17.16,18.06,14.05,15.72.8,14V0H70.18V14c-13.26,1.68-16.36,4-16.36,23.41V201.31c0,6,2.48,10,6.21,10h6.21C85.5,211.34,107,188.26,120.92,159.17Z"/></g><g id="_2" data-name="&amp;"><path class="cls-1" d="M553.72,79.94a105.64,105.64,0,0,1-10,35.36c3.28,12.25,5.88,19.75,12.85,19.75a29.65,29.65,0,0,0,9.58-1.78v10.08c-3.29,3.16-9.71,5.73-16,5.73-10.12,0-17.37-4.15-22.56-12.05-8.76,7.7-19.28,12.05-30.5,12.05-18.18,0-29.94-15-29.94-37.14,0-24.1,12.3-36.74,25.16-46.42-6.84-8.89-10.53-16.79-10.53-29.23,0-15.61,9.3-31.41,25.7-31.41,15.18,0,23,12.05,23,27.85,0,14-6.57,21.93-14.22,29.24,8.88,8.49,17.36,20.93,23.79,40.29a72.62,72.62,0,0,0,4.38-24.49c0-12.45-4.24-14.22-11.08-14.42V54.07h32.82v9.28C559.33,63.55,555.23,66.11,553.72,79.94Zm-31,47c0-.2-.13-.2-.13-.39-8.07-23.9-13.95-39.11-21.06-49.58-4.79,6.52-8.34,14.81-8.34,26.66,0,18.18,6.7,27.66,17.09,27.66A21.86,21.86,0,0,0,522.68,127ZM507.92,54.46C515.44,48.53,521,42.21,521,32.73c0-9.08-4.1-15.8-11.48-15.8-5.88,0-11.63,5.93-11.63,16.79C497.93,42.61,501.49,48.14,507.92,54.46Z"/></g><g id="S-2" data-name="S"><path class="cls-1" d="M578.17,181.28c0-29.9,16.23-48.1,34.44-48.1,15.69,0,26.87,12,26.87,29.64,0,13-5.23,22.36-15.15,22.36-12.62,0-13.16-23.4-22-23.4-5.41,0-10.28,7.28-10.28,19.5,0,29.12,20.74,42.12,39.31,42.12,20.38,0,35-18.46,35-45.5,0-33.28-18.58-47.32-39-62.13C608.1,102,588.63,88,588.63,54.41,588.81,18.79,610.44.08,635.33.08c16.23,0,26.33,4.94,33.9,11.44L671.58,4h8.83l8.66,59.27-6.67,2.86c-8.84-31.72-24-49.4-42.38-49.4-11.18,0-21.82,8.06-21.82,22.88,0,16.64,12.08,25.48,26.69,35.1,25.42,16.9,52.29,35.36,52.29,87.87,0,41.34-25.06,78.52-64.92,78.52C600.71,241.08,578.17,216.9,578.17,181.28Z"/></g><g id="L-2" data-name="L"><path class="cls-1" d="M486.92,159.17l7.25,7-20.09,67.89H366.8V220c13.25-1.67,16.36-4.35,16.36-23.41V37.45c0-19.39-3.11-21.73-16.36-23.41V0h69.38V14c-13.26,1.68-16.36,4-16.36,23.41V201.31c0,6,2.48,10,6.21,10h6.21C451.5,211.34,473,188.26,486.92,159.17Z"/></g><g id="_3" data-name="&amp;"><path class="cls-1" d="M925.22,79.94a105.64,105.64,0,0,1-10,35.36c3.28,12.25,5.88,19.75,12.85,19.75a29.65,29.65,0,0,0,9.58-1.78v10.08c-3.29,3.16-9.71,5.73-16,5.73-10.12,0-17.37-4.15-22.56-12.05-8.76,7.7-19.28,12.05-30.5,12.05-18.18,0-29.94-15-29.94-37.14,0-24.1,12.3-36.74,25.16-46.42C857,56.63,853.3,48.73,853.3,36.29c0-15.61,9.3-31.41,25.7-31.41,15.18,0,23,12.05,23,27.85,0,14-6.57,21.93-14.22,29.24,8.88,8.49,17.36,20.93,23.79,40.29a72.62,72.62,0,0,0,4.38-24.49c0-12.45-4.24-14.22-11.08-14.42V54.07h32.82v9.28C930.83,63.55,926.73,66.11,925.22,79.94Zm-31,47c0-.2-.13-.2-.13-.39C886,102.66,880.1,87.45,873,77c-4.79,6.52-8.34,14.81-8.34,26.66,0,18.18,6.7,27.66,17.09,27.66A21.86,21.86,0,0,0,894.18,127ZM879.42,54.46c7.52-5.93,13.12-12.25,13.12-21.73,0-9.08-4.1-15.8-11.48-15.8-5.88,0-11.63,5.93-11.63,16.79C869.43,42.61,873,48.14,879.42,54.46Z"/></g><g id="S-3" data-name="S"><path class="cls-1" d="M949.67,181.28c0-29.9,16.23-48.1,34.44-48.1,15.69,0,26.87,12,26.87,29.64,0,13-5.23,22.36-15.15,22.36-12.62,0-13.16-23.4-22-23.4-5.41,0-10.28,7.28-10.28,19.5,0,29.12,20.74,42.12,39.31,42.12,20.38,0,35-18.46,35-45.5,0-33.28-18.58-47.32-38.95-62.13C979.6,102,960.13,88,960.13,54.41c.18-35.62,21.81-54.33,46.7-54.33,16.23,0,26.33,4.94,33.9,11.44L1043.08,4h8.83l8.66,59.27-6.67,2.86c-8.84-31.72-24-49.4-42.38-49.4-11.18,0-21.82,8.06-21.82,22.88,0,16.64,12.08,25.48,26.69,35.1,25.42,16.9,52.29,35.36,52.29,87.87,0,41.34-25.06,78.52-64.92,78.52C972.21,241.08,949.67,216.9,949.67,181.28Z"/></g><g id="L-3" data-name="L"><path class="cls-1" d="M858.42,159.17l7.25,7-20.09,67.89H738.3V220c13.25-1.67,16.36-4.35,16.36-23.41V37.45c0-19.39-3.11-21.73-16.36-23.41V0h69.38V14c-13.26,1.68-16.36,4-16.36,23.41V201.31c0,6,2.48,10,6.21,10h6.21C823,211.34,844.54,188.26,858.42,159.17Z"/></g><g id="_4" data-name="&amp;"><path class="cls-1" d="M1287.22,79.94a105.64,105.64,0,0,1-10,35.36c3.28,12.25,5.88,19.75,12.85,19.75a29.65,29.65,0,0,0,9.58-1.78v10.08c-3.29,3.16-9.71,5.73-16,5.73-10.12,0-17.37-4.15-22.56-12.05-8.76,7.7-19.28,12.05-30.5,12.05-18.18,0-29.94-15-29.94-37.14,0-24.1,12.3-36.74,25.16-46.42-6.84-8.89-10.53-16.79-10.53-29.23,0-15.61,9.3-31.41,25.7-31.41,15.18,0,23,12.05,23,27.85,0,14-6.57,21.93-14.22,29.24,8.88,8.49,17.36,20.93,23.79,40.29a72.62,72.62,0,0,0,4.38-24.49c0-12.45-4.24-14.22-11.08-14.42V54.07h32.82v9.28C1292.83,63.55,1288.73,66.11,1287.22,79.94Zm-31,47c0-.2-.13-.2-.13-.39-8.07-23.9-14-39.11-21.06-49.58-4.79,6.52-8.34,14.81-8.34,26.66,0,18.18,6.7,27.66,17.09,27.66A21.86,21.86,0,0,0,1256.18,127Zm-14.76-72.49c7.52-5.93,13.12-12.25,13.12-21.73,0-9.08-4.1-15.8-11.48-15.8-5.88,0-11.63,5.93-11.63,16.79C1231.43,42.61,1235,48.14,1241.42,54.46Z"/></g><g id="S-4" data-name="S"><path class="cls-1" d="M1311.67,181.28c0-29.9,16.23-48.1,34.44-48.1,15.69,0,26.87,12,26.87,29.64,0,13-5.23,22.36-15.15,22.36-12.62,0-13.16-23.4-22-23.4-5.41,0-10.28,7.28-10.28,19.5,0,29.12,20.74,42.12,39.31,42.12,20.38,0,35-18.46,35-45.5,0-33.28-18.58-47.32-38.95-62.13C1341.6,102,1322.13,88,1322.13,54.41c.18-35.62,21.81-54.33,46.7-54.33,16.23,0,26.33,4.94,33.9,11.44L1405.08,4h8.83l8.66,59.27-6.67,2.86c-8.84-31.72-24-49.4-42.38-49.4-11.18,0-21.82,8.06-21.82,22.88,0,16.64,12.08,25.48,26.69,35.1,25.42,16.9,52.29,35.36,52.29,87.87,0,41.34-25.06,78.52-64.92,78.52C1334.21,241.08,1311.67,216.9,1311.67,181.28Z"/></g><g id="L-4" data-name="L"><path class="cls-1" d="M1220.42,159.17l7.25,7-20.09,67.89H1100.3V220c13.25-1.67,16.36-4.35,16.36-23.41V37.45c0-19.39-3.11-21.73-16.36-23.41V0h69.38V14c-13.26,1.68-16.36,4-16.36,23.41V201.31c0,6,2.48,10,6.21,10h6.21C1185,211.34,1206.54,188.26,1220.42,159.17Z"/></g><g id="_5" data-name="&amp;"><path class="cls-1" d="M1650.72,79.94a105.64,105.64,0,0,1-10,35.36c3.28,12.25,5.88,19.75,12.85,19.75a29.65,29.65,0,0,0,9.58-1.78v10.08c-3.29,3.16-9.71,5.73-16,5.73-10.12,0-17.37-4.15-22.56-12.05-8.76,7.7-19.28,12.05-30.5,12.05-18.18,0-29.94-15-29.94-37.14,0-24.1,12.3-36.74,25.16-46.42-6.84-8.89-10.53-16.79-10.53-29.23,0-15.61,9.3-31.41,25.7-31.41,15.18,0,23,12.05,23,27.85,0,14-6.57,21.93-14.22,29.24,8.88,8.49,17.36,20.93,23.79,40.29a72.62,72.62,0,0,0,4.38-24.49c0-12.45-4.24-14.22-11.08-14.42V54.07h32.82v9.28C1656.33,63.55,1652.23,66.11,1650.72,79.94Zm-31,47c0-.2-.13-.2-.13-.39-8.07-23.9-14-39.11-21.06-49.58-4.79,6.52-8.34,14.81-8.34,26.66,0,18.18,6.7,27.66,17.09,27.66A21.86,21.86,0,0,0,1619.68,127Zm-14.76-72.49c7.52-5.93,13.12-12.25,13.12-21.73,0-9.08-4.1-15.8-11.48-15.8-5.88,0-11.63,5.93-11.63,16.79C1594.93,42.61,1598.49,48.14,1604.92,54.46Z"/></g><g id="S-5" data-name="S"><path class="cls-1" d="M1675.17,181.28c0-29.9,16.23-48.1,34.44-48.1,15.69,0,26.87,12,26.87,29.64,0,13-5.23,22.36-15.15,22.36-12.62,0-13.16-23.4-22-23.4-5.41,0-10.28,7.28-10.28,19.5,0,29.12,20.74,42.12,39.31,42.12,20.38,0,35-18.46,35-45.5,0-33.28-18.58-47.32-38.95-62.13C1705.1,102,1685.63,88,1685.63,54.41c.18-35.62,21.81-54.33,46.7-54.33,16.23,0,26.33,4.94,33.9,11.44L1768.58,4h8.83l8.66,59.27-6.67,2.86c-8.84-31.72-24-49.4-42.38-49.4-11.18,0-21.82,8.06-21.82,22.88,0,16.64,12.08,25.48,26.69,35.1,25.42,16.9,52.29,35.36,52.29,87.87,0,41.34-25.06,78.52-64.92,78.52C1697.71,241.08,1675.17,216.9,1675.17,181.28Z"/></g><g id="L-5" data-name="L"><path class="cls-1" d="M1583.92,159.17l7.25,7-20.09,67.89H1463.8V220c13.25-1.67,16.36-4.35,16.36-23.41V37.45c0-19.39-3.11-21.73-16.36-23.41V0h69.38V14c-13.26,1.68-16.36,4-16.36,23.41V201.31c0,6,2.48,10,6.21,10h6.21C1548.5,211.34,1570,188.26,1583.92,159.17Z"/></g><g id="L-6" data-name="L"><path class="cls-1" d="M1881.24,211.34H1875c-3.73,0-6.21-4-6.21-10V37.45c0-19.39,3.1-21.73,16.36-23.41V0H1815.8V14c13.25,1.68,16.36,4,16.36,23.41V196.62c0,19.06-3.11,21.74-16.36,23.41v14.05h103.53V186.3C1907.53,201.38,1893.89,211.34,1881.24,211.34Z"/></g><g id="S-6" data-name="S"><path class="cls-1" d="M0,427.79c0-29.9,16.23-48.1,34.44-48.1,15.69,0,26.87,12,26.87,29.64,0,13-5.23,22.36-15.15,22.36-12.62,0-13.16-23.4-22-23.4-5.41,0-10.27,7.28-10.27,19.5,0,29.12,20.73,42.12,39.31,42.12,20.37,0,35-18.46,35-45.5,0-33.28-18.57-47.32-39-62.13-19.3-13.78-38.77-27.82-38.77-61.36.18-35.62,21.82-54.34,46.7-54.34,16.23,0,26.33,4.94,33.9,11.44l2.35-7.54h8.84l8.65,59.28-6.67,2.86c-8.84-31.72-24-49.4-42.38-49.4C50.67,263.22,40,271.28,40,286.1c0,16.64,12.08,25.48,26.69,35.1,25.43,16.9,52.3,35.36,52.3,87.87,0,41.34-25.07,78.51-64.92,78.51C22.54,487.58,0,463.41,0,427.79Z"/></g><g id="_6" data-name="&amp;"><path class="cls-1" d="M341.56,326.45c-1.51,13.23-4.93,25.28-10,35.36,3.29,12.24,5.88,19.75,12.86,19.75a29.59,29.59,0,0,0,9.57-1.78v10.08c-3.28,3.16-9.71,5.72-16,5.72-10.12,0-17.37-4.14-22.56-12.05-8.75,7.71-19.28,12.05-30.49,12.05-18.19,0-29.95-15-29.95-37.13,0-24.1,12.31-36.74,25.16-46.42-6.84-8.89-10.53-16.79-10.53-29.23,0-15.61,9.3-31.41,25.71-31.41,15.18,0,23,12.05,23,27.85,0,14-6.56,21.93-14.22,29.23,8.89,8.5,17.37,20.94,23.79,40.3a72.42,72.42,0,0,0,4.38-24.49c0-12.45-4.24-14.23-11.08-14.42v-9.29H354v9.29C347.16,310.05,343.06,312.62,341.56,326.45Zm-31,47c0-.2-.14-.2-.14-.39-8.07-23.9-13.95-39.11-21.06-49.58C284.54,330,281,338.3,281,350.15c0,18.18,6.7,27.66,17.09,27.66A21.92,21.92,0,0,0,310.52,373.46ZM295.75,301c7.52-5.93,13.13-12.25,13.13-21.73,0-9.09-4.11-15.8-11.49-15.8-5.88,0-11.62,5.92-11.62,16.79C285.77,289.12,289.32,294.65,295.75,301Z"/></g><g id="S-7" data-name="S"><path class="cls-1" d="M366,427.79c0-29.9,16.23-48.1,34.44-48.1,15.69,0,26.87,12,26.87,29.64,0,13-5.23,22.36-15.15,22.36-12.62,0-13.16-23.4-22-23.4-5.41,0-10.27,7.28-10.27,19.5,0,29.12,20.73,42.12,39.31,42.12,20.37,0,35-18.46,35-45.5,0-33.28-18.57-47.32-38.95-62.13-19.3-13.78-38.77-27.82-38.77-61.36.18-35.62,21.82-54.34,46.7-54.34,16.23,0,26.33,4.94,33.9,11.44l2.35-7.54h8.84l8.65,59.28-6.67,2.86c-8.84-31.72-24-49.4-42.38-49.4-11.18,0-21.82,8.06-21.82,22.88,0,16.64,12.08,25.48,26.69,35.1,25.43,16.9,52.3,35.36,52.3,87.87,0,41.34-25.07,78.51-64.92,78.51C388.54,487.58,366,463.41,366,427.79Z"/></g><g id="L-7" data-name="L"><path class="cls-1" d="M274.75,405.68l7.25,7-20.09,67.88H154.63v-14c13.26-1.67,16.36-4.35,16.36-23.41V284c0-19.39-3.1-21.74-16.36-23.41v-14H224v14c-13.25,1.67-16.36,4-16.36,23.41V447.81c0,6,2.48,10,6.21,10h6.22C239.34,457.85,260.88,434.77,274.75,405.68Z"/></g><g id="_7" data-name="&amp;"><path class="cls-1" d="M713.06,326.45c-1.51,13.23-4.93,25.28-10,35.36,3.29,12.24,5.88,19.75,12.86,19.75a29.59,29.59,0,0,0,9.57-1.78v10.08c-3.28,3.16-9.71,5.72-16,5.72-10.12,0-17.37-4.14-22.56-12.05-8.75,7.71-19.28,12.05-30.49,12.05-18.19,0-30-15-30-37.13,0-24.1,12.31-36.74,25.16-46.42-6.84-8.89-10.53-16.79-10.53-29.23,0-15.61,9.3-31.41,25.71-31.41,15.18,0,23,12.05,23,27.85,0,14-6.56,21.93-14.22,29.23,8.89,8.5,17.37,20.94,23.79,40.3a72.42,72.42,0,0,0,4.38-24.49c0-12.45-4.24-14.23-11.08-14.42v-9.29H725.5v9.29C718.66,310.05,714.56,312.62,713.06,326.45Zm-31,47c0-.2-.14-.2-.14-.39-8.07-23.9-14-39.11-21.06-49.58-4.78,6.52-8.34,14.81-8.34,26.66,0,18.18,6.7,27.66,17.09,27.66A21.92,21.92,0,0,0,682,373.46ZM667.25,301c7.52-5.93,13.13-12.25,13.13-21.73,0-9.09-4.11-15.8-11.49-15.8-5.88,0-11.62,5.92-11.62,16.79C657.27,289.12,660.82,294.65,667.25,301Z"/></g><g id="S-8" data-name="S"><path class="cls-1" d="M737.5,427.79c0-29.9,16.23-48.1,34.44-48.1,15.69,0,26.87,12,26.87,29.64,0,13-5.23,22.36-15.15,22.36-12.62,0-13.16-23.4-22-23.4-5.41,0-10.27,7.28-10.27,19.5,0,29.12,20.73,42.12,39.31,42.12,20.37,0,35-18.46,35-45.5,0-33.28-18.57-47.32-38.95-62.13C767.43,348.5,748,334.46,748,300.92c.18-35.62,21.82-54.34,46.7-54.34,16.23,0,26.33,4.94,33.9,11.44l2.35-7.54h8.84l8.65,59.28-6.67,2.86c-8.84-31.72-24-49.4-42.38-49.4-11.18,0-21.82,8.06-21.82,22.88,0,16.64,12.08,25.48,26.69,35.1,25.43,16.9,52.3,35.36,52.3,87.87,0,41.34-25.07,78.51-64.92,78.51C760,487.58,737.5,463.41,737.5,427.79Z"/></g><g id="L-8" data-name="L"><path class="cls-1" d="M646.25,405.68l7.25,7-20.09,67.88H526.13v-14c13.26-1.67,16.36-4.35,16.36-23.41V284c0-19.39-3.1-21.74-16.36-23.41v-14h69.38v14c-13.25,1.67-16.36,4-16.36,23.41V447.81c0,6,2.48,10,6.21,10h6.22C610.84,457.85,632.38,434.77,646.25,405.68Z"/></g><g id="_8" data-name="&amp;"><path class="cls-1" d="M1075.06,326.45c-1.51,13.23-4.93,25.28-10,35.36,3.29,12.24,5.88,19.75,12.86,19.75a29.59,29.59,0,0,0,9.57-1.78v10.08c-3.28,3.16-9.71,5.72-16,5.72-10.12,0-17.37-4.14-22.56-12.05-8.75,7.71-19.28,12.05-30.49,12.05-18.19,0-30-15-30-37.13,0-24.1,12.31-36.74,25.16-46.42-6.84-8.89-10.53-16.79-10.53-29.23,0-15.61,9.3-31.41,25.71-31.41,15.18,0,23,12.05,23,27.85,0,14-6.56,21.93-14.22,29.23,8.89,8.5,17.37,20.94,23.79,40.3a72.42,72.42,0,0,0,4.38-24.49c0-12.45-4.24-14.23-11.08-14.42v-9.29h32.82v9.29C1080.66,310.05,1076.56,312.62,1075.06,326.45Zm-31,47c0-.2-.14-.2-.14-.39-8.07-23.9-14-39.11-21.06-49.58-4.78,6.52-8.34,14.81-8.34,26.66,0,18.18,6.7,27.66,17.09,27.66A21.92,21.92,0,0,0,1044,373.46ZM1029.25,301c7.52-5.93,13.13-12.25,13.13-21.73,0-9.09-4.11-15.8-11.49-15.8-5.88,0-11.62,5.92-11.62,16.79C1019.27,289.12,1022.82,294.65,1029.25,301Z"/></g><g id="S-9" data-name="S"><path class="cls-1" d="M1099.5,427.79c0-29.9,16.23-48.1,34.44-48.1,15.69,0,26.87,12,26.87,29.64,0,13-5.23,22.36-15.15,22.36-12.62,0-13.16-23.4-22-23.4-5.41,0-10.27,7.28-10.27,19.5,0,29.12,20.73,42.12,39.31,42.12,20.37,0,35-18.46,35-45.5,0-33.28-18.57-47.32-39-62.13-19.3-13.78-38.77-27.82-38.77-61.36.18-35.62,21.82-54.34,46.7-54.34,16.23,0,26.33,4.94,33.9,11.44l2.35-7.54h8.84l8.65,59.28-6.67,2.86c-8.84-31.72-24-49.4-42.38-49.4-11.18,0-21.82,8.06-21.82,22.88,0,16.64,12.08,25.48,26.69,35.1,25.43,16.9,52.3,35.36,52.3,87.87,0,41.34-25.07,78.51-64.92,78.51C1122,487.58,1099.5,463.41,1099.5,427.79Z"/></g><g id="L-9" data-name="L"><path class="cls-1" d="M1008.25,405.68l7.25,7-20.09,67.88H888.13v-14c13.26-1.67,16.36-4.35,16.36-23.41V284c0-19.39-3.1-21.74-16.36-23.41v-14h69.38v14c-13.25,1.67-16.36,4-16.36,23.41V447.81c0,6,2.48,10,6.21,10h6.22C972.84,457.85,994.38,434.77,1008.25,405.68Z"/></g><g id="_9" data-name="&amp;"><path class="cls-1" d="M1438.56,326.45c-1.51,13.23-4.93,25.28-10,35.36,3.29,12.24,5.88,19.75,12.86,19.75a29.59,29.59,0,0,0,9.57-1.78v10.08c-3.28,3.16-9.71,5.72-16,5.72-10.12,0-17.37-4.14-22.56-12.05-8.75,7.71-19.28,12.05-30.49,12.05-18.19,0-30-15-30-37.13,0-24.1,12.31-36.74,25.16-46.42-6.84-8.89-10.53-16.79-10.53-29.23,0-15.61,9.3-31.41,25.71-31.41,15.18,0,23,12.05,23,27.85,0,14-6.56,21.93-14.22,29.23,8.89,8.5,17.37,20.94,23.79,40.3a72.42,72.42,0,0,0,4.38-24.49c0-12.45-4.24-14.23-11.08-14.42v-9.29H1451v9.29C1444.16,310.05,1440.06,312.62,1438.56,326.45Zm-31,47c0-.2-.14-.2-.14-.39-8.07-23.9-14-39.11-21.06-49.58-4.78,6.52-8.34,14.81-8.34,26.66,0,18.18,6.7,27.66,17.09,27.66A21.92,21.92,0,0,0,1407.52,373.46ZM1392.75,301c7.52-5.93,13.13-12.25,13.13-21.73,0-9.09-4.11-15.8-11.49-15.8-5.88,0-11.62,5.92-11.62,16.79C1382.77,289.12,1386.32,294.65,1392.75,301Z"/></g><g id="S-10" data-name="S"><path class="cls-1" d="M1463,427.79c0-29.9,16.23-48.1,34.44-48.1,15.69,0,26.87,12,26.87,29.64,0,13-5.23,22.36-15.15,22.36-12.62,0-13.16-23.4-22-23.4-5.41,0-10.27,7.28-10.27,19.5,0,29.12,20.73,42.12,39.31,42.12,20.37,0,35-18.46,35-45.5,0-33.28-18.57-47.32-39-62.13-19.3-13.78-38.77-27.82-38.77-61.36.18-35.62,21.82-54.34,46.7-54.34,16.23,0,26.33,4.94,33.9,11.44l2.35-7.54h8.84l8.65,59.28-6.67,2.86c-8.84-31.72-24-49.4-42.38-49.4-11.18,0-21.82,8.06-21.82,22.88,0,16.64,12.08,25.48,26.69,35.1,25.43,16.9,52.3,35.36,52.3,87.87,0,41.34-25.07,78.51-64.92,78.51C1485.54,487.58,1463,463.41,1463,427.79Z"/></g><g id="L-10" data-name="L"><path class="cls-1" d="M1371.75,405.68l7.25,7-20.09,67.88H1251.63v-14c13.26-1.67,16.36-4.35,16.36-23.41V284c0-19.39-3.1-21.74-16.36-23.41v-14H1321v14c-13.25,1.67-16.36,4-16.36,23.41V447.81c0,6,2.48,10,6.21,10h6.22C1336.34,457.85,1357.88,434.77,1371.75,405.68Z"/></g><g id="_10" data-name="&amp;"><path class="cls-1" d="M1790.56,326.45c-1.51,13.23-4.93,25.28-10,35.36,3.29,12.24,5.88,19.75,12.86,19.75a29.59,29.59,0,0,0,9.57-1.78v10.08c-3.28,3.16-9.71,5.72-16,5.72-10.12,0-17.37-4.14-22.56-12.05-8.75,7.71-19.28,12.05-30.49,12.05-18.19,0-30-15-30-37.13,0-24.1,12.31-36.74,25.16-46.42-6.84-8.89-10.53-16.79-10.53-29.23,0-15.61,9.3-31.41,25.71-31.41,15.18,0,23,12.05,23,27.85,0,14-6.56,21.93-14.22,29.23,8.89,8.5,17.37,20.94,23.79,40.3a72.42,72.42,0,0,0,4.38-24.49c0-12.45-4.24-14.23-11.08-14.42v-9.29H1803v9.29C1796.16,310.05,1792.06,312.62,1790.56,326.45Zm-31,47c0-.2-.14-.2-.14-.39-8.07-23.9-14-39.11-21.06-49.58-4.78,6.52-8.34,14.81-8.34,26.66,0,18.18,6.7,27.66,17.09,27.66A21.92,21.92,0,0,0,1759.52,373.46ZM1744.75,301c7.52-5.93,13.13-12.25,13.13-21.73,0-9.09-4.11-15.8-11.49-15.8-5.88,0-11.62,5.92-11.62,16.79C1734.77,289.12,1738.32,294.65,1744.75,301Z"/></g><g id="S-11" data-name="S"><path class="cls-1" d="M1919.4,354.61c-10.09-14.89-24.09-24.38-37.68-33.41-14.61-9.62-26.69-18.46-26.69-35.1,0-14.82,10.64-22.88,21.82-22.88,18.4,0,33.54,17.68,42.38,49.4l.1,0V264.75l-2.08-14.27h-8.84l-2.35,7.54c-7.57-6.5-17.67-11.44-33.9-11.44-24.88,0-46.52,18.72-46.7,54.34,0,33.54,19.47,47.58,38.77,61.36,20.38,14.81,39,28.85,39,62.13,0,27-14.61,45.5-35,45.5-18.58,0-39.31-13-39.31-42.12,0-12.22,4.86-19.5,10.27-19.5,8.84,0,9.38,23.4,22,23.4,9.92,0,15.15-9.36,15.15-22.36,0-17.68-11.18-29.64-26.87-29.64-18.21,0-34.44,18.2-34.44,48.1,0,35.62,22.54,59.79,54.1,59.79,21.67,0,39-11,50.23-27.68"/></g><g id="L-11" data-name="L"><path class="cls-1" d="M1723.75,405.68l7.25,7-20.09,67.88H1603.63v-14c13.26-1.67,16.36-4.35,16.36-23.41V284c0-19.39-3.1-21.74-16.36-23.41v-14H1673v14c-13.25,1.67-16.36,4-16.36,23.41V447.81c0,6,2.48,10,6.21,10h6.22C1688.34,457.85,1709.88,434.77,1723.75,405.68Z"/></g></g></g></svg>