<svg xmlns="http://www.w3.org/2000/svg" viewBox="0 0 370.23 323.49"><defs><style>.cls-1{fill:#426a30; fill-opacity:0.9}</style></defs><g id="Ebene_2" data-name="Ebene 2"><g id="Ebene_1-2" data-name="Ebene 1"><g id="_" data-name="&amp;"><path class="cls-1" d="M201.2,114.71c3.11,13,4,25.45,2.71,36.64,7.28,10.39,12.28,16.55,18.84,14.17a29.7,29.7,0,0,0,8.38-5l3.45,9.47c-2,4.09-7.16,8.7-13.07,10.86-9.51,3.46-17.74,2-25.33-3.61-5.59,10.23-14,17.92-24.53,21.75-17.09,6.22-33.27-3.86-40.84-24.65-8.24-22.65-1-38.73,7.77-52.23-9.47-6-15.64-12.17-19.9-23.87-5.33-14.66-2-32.69,13.42-38.3,14.26-5.19,25.71,3.46,31.11,18.31,4.8,13.18,1.33,22.85-3.36,32.34,11.25,4.94,23.48,13.73,36.14,29.73a72.51,72.51,0,0,0-4.27-24.52c-4.26-11.69-8.85-11.91-15.34-9.76l-3.18-8.72L204,86.14l3.18,8.73C200.86,97.39,197.89,101.21,201.2,114.71Zm-13.09,54.8c-.07-.19-.19-.14-.26-.33-15.76-19.7-26.48-32-36.75-39.38-2.27,7.76-2.77,16.77,1.28,27.91,6.22,17.07,15.76,23.69,25.52,20.14A21.92,21.92,0,0,0,188.11,169.51Zm-38.67-63.07c5-8.14,8.15-16,4.9-24.91-3.1-8.54-9.26-13.45-16.19-10.92-5.53,2-8.9,9.54-5.18,19.75C136,98.71,141.24,102.7,149.44,106.44Z"/></g><g id="S"><path class="cls-1" d="M258.83,201.58c-10.23-28.09-1.2-50.74,15.92-57,14.74-5.37,29.33,2,35.38,18.66,4.45,12.21,2.73,22.8-6.59,26.19C291.68,193.77,283.17,172,274.87,175c-5.09,1.85-7.17,10.35-3,21.83,10,27.36,33.89,32.49,51.34,26.13,19.15-7,26.56-29.31,17.32-54.71-11.39-31.27-33.64-38.11-57.86-45.07-22.84-6.35-45.94-12.88-57.41-44.39-12-33.53,1.92-58.52,25.3-67,15.25-5.55,26.43-4.36,35.77-.84L286,3l8.31-3,28.4,52.74-5.29,5C298.23,30.93,278,19.5,260.67,25.79c-10.51,3.82-17.75,15-12.68,29,5.69,15.63,20.07,19.81,37.08,23.85,29.67,7.18,61.23,15.34,79.2,64.69,14.13,38.84,3.3,82.35-34.15,96C300.46,250.06,271,235.05,258.83,201.58Z"/></g><g id="L"><path class="cls-1" d="M166.1,213.59l9.16,4,3.82,69.23L78.27,323.49l-4.7-12.91c11.9-6.06,13.92-9.58,7.55-27.09L27.9,137.26c-6.49-17.81-10.19-18.9-23.2-15.9L0,108.45,65.2,84.72l4.69,12.91c-11.89,6.07-14,9.28-7.55,27.1l54.79,150.52c2,5.53,5.69,8.36,9.19,7.09l5.84-2.13C150.26,273.63,162.78,245.06,166.1,213.59Z"/></g></g></g></svg>