<svg id="Capa_1" enable-background="new 0 0 512 512" height="512" viewBox="0 0 512 512" width="512" xmlns="http://www.w3.org/2000/svg"><g><path d="m388.899 317.633c0-.027.001-.055.001-.082 0-81.169-49.998-150.869-120.808-179.953 7.04-3.894 13.275-8.522 18.585-13.832 14.177-14.178 23.495-34.94 26.947-60.045 2.51-18.254 1.093-32.708 1.031-33.314l-1.236-12.173-12.173-1.235c-.606-.062-15.061-1.477-33.314 1.03-24.208 3.329-44.36 12.125-58.482 25.46v-43.489h-30v123.674c-100.238 7.683-179.45 91.704-179.45 193.877 0 107.22 87.23 194.449 194.45 194.449 24.407 0 48.121-4.458 70.599-13.231 20.87 8.521 43.686 13.231 67.584 13.231 98.904 0 179.367-80.464 179.367-179.367v-15zm31.835 30c-3.647 21.488-14.987 40.39-31.082 53.76l-31.038-53.76zm-88.101 14.999 31.06 53.798c-9.679 3.599-20.143 5.57-31.059 5.57-10.917 0-21.381-1.971-31.06-5.57zm-57.019 38.761c-16.095-13.37-27.435-32.272-31.082-53.76h62.12zm-46.515-335.205c15.542-15.541 40.621-19 55.915-19.552-.552 15.305-4.013 40.377-19.551 55.916-15.539 15.538-40.61 18.999-55.915 19.551.552-15.305 4.014-40.376 19.551-55.915zm-34.649 415.812c-90.678 0-164.45-73.771-164.45-164.449s73.772-164.45 164.45-164.45 164.45 73.772 164.45 164.45c0 .027-.001.055-.001.082h-205.632v15c0 60.05 29.666 113.298 75.109 145.871-11.071 2.32-22.405 3.496-33.926 3.496zm138.183 0c-77.299 0-141.072-59.022-148.619-134.367h30.19c7.399 58.767 57.689 104.367 118.43 104.367s111.03-45.6 118.428-104.367h30.19c-7.546 75.345-71.32 134.367-148.619 134.367z"/></g></svg>